<?xml version="1.0" encoding="utf-8"?>
<!DOCTYPE svg PUBLIC "-//W3C//DTD SVG 1.1//EN" "http://www.w3.org/Graphics/SVG/1.1/DTD/svg11.dtd">
<svg version="1.1" id="buttonExport"
	 xmlns="http://www.w3.org/2000/svg" xmlns:xlink="http://www.w3.org/1999/xlink"
	 x="0px" y="0px" width="64px" height="50px" viewBox="0 0 64 50" enable-background="new 0 0 64 50" xml:space="preserve">
<defs>
    <style type="text/css">
    	<![CDATA[
         #buttonExport {
            cursor: pointer;
         }
         #buttonExport:hover .gradientUp {
            stop-color: #922c26;
         }
         #buttonExport:hover .buttonBorder {
            fill: #922c26;
         }
         #buttonExport:hover .gradientDown {
            stop-color: #ff6561;
         }
         #buttonExport:hover .reflection {
            fill: #ff6a66;
         }
         #buttonExport .gradientUp {
            stop-color: #641e15;
         }
         #buttonExport .buttonBorder {
            fill: #641e15;
         }
         #buttonExport .gradientDown {
            stop-color: #9f3026;
         }
         #buttonExport .reflection {
            fill: #c83e05;
         }
         .planisphere {
            fill: #FA9600;
         }
         .scissors {
            fill: #FF4A69;
         }
      ]]>
      </style>
</defs>
    <g>
        <linearGradient id="gradientExport" x1="0%" y1="0%" x2="0%" y2="100%">
            <stop class="gradientUp" offset="0%" />
            <stop class="gradientDown" offset="100%" />
        </linearGradient>
        <path fill="url(#gradientExport)" d="M0,0l0,39.5c0,5.6,4.7,10.3,10.5,10.3h43.1c5.8,0,10.5-4.6,10.5-10.3L64,0H0z"/>
    </g>
    <g>
        <path class="reflection" d="M53.5,45.8H10.5c-5,0-9.1-4-9.2-8.9l0,2.6c0,4.9,4.1,9,9.2,9h43.1c5.1,0,9.2-4,9.2-9l0-2.6
                C62.7,41.8,58.6,45.8,53.5,45.8z"/>
    </g>
    <g>
        <path class="buttonBorder" d="M62.7,0l0,39.5c0,5-4.1,9-9.2,9H10.5c-5.1,0-9.2-4-9.2-9V0H0v39.5c0,5.6,4.7,10.3,10.5,10.3h43.1c5.8,0,10.5-4.6,10.5-10.3
                V0H62.7z"/>
    </g>
    <path class="planisphere" d="M42.3,18.3c0-7.5-6.1-13.6-13.5-13.6s-13.5,6.1-13.5,13.5c0,2.4,0.7,4.8,1.8,6.8l-1.8,1.1v6.2h27v-6.2
            L40.5,25C41.6,23,42.3,20.7,42.3,18.3z M28.8,30.8c-5.3,0-9.5-3.9-9.5-8.6c0-4.7,4.3-8.6,9.5-8.6c5.3,0,9.5,3.9,9.5,8.6
            C38.3,26.9,34.1,30.8,28.8,30.8z"/>
    <g class="scissors">
        <path d="M49.7,34.4c-1.2-1.7-3.2-2.4-5.2-2.1l0,0L29.2,11.1c0,0-2.6,3,1,9l10.6,14.7l0,0c-1,1.7-1,4,0.3,5.7
                c1.7,2.4,5,2.9,7.3,1.2C50.8,40,51.3,36.7,49.7,34.4z M42.5,39.6c-1.2-1.6-0.8-3.9,0.8-5.1s3.9-0.8,5.1,0.8c1.2,1.6,0.8,3.9-0.8,5.1
                C45.9,41.5,43.6,41.2,42.5,39.6z"/>
        <path d="M30,41.6c2.3,1.7,5.6,1.3,7.4-1.1c1.3-1.7,1.3-3.9,0.4-5.7l0,0l10.9-14.5c3.7-5.9,1.2-9,1.2-9L34.2,32.2l0,0
                c-1.9-0.4-4,0.3-5.2,2C27.3,36.6,27.7,39.9,30,41.6z M31,40.3c-1.6-1.2-1.9-3.5-0.7-5.1c1.2-1.6,3.5-1.9,5.1-0.7
                c1.6,1.2,1.9,3.5,0.7,5.1C34.9,41.2,32.6,41.5,31,40.3z"/>
    </g>
</svg>