<?xml version="1.0" encoding="utf-8"?>
<!DOCTYPE svg PUBLIC "-//W3C//DTD SVG 1.1//EN" "http://www.w3.org/Graphics/SVG/1.1/DTD/svg11.dtd">
<svg version="1.1" id="buttonSettings"
	 xmlns="http://www.w3.org/2000/svg" xmlns:xlink="http://www.w3.org/1999/xlink"
	 x="0px" y="0px" width="64px" height="50px" viewBox="0 0 64 50" enable-background="new 0 0 64 50" xml:space="preserve">
<defs>
    <style type="text/css">
    	<![CDATA[
         #buttonSettings {
            cursor: pointer;
         }
         #buttonSettings:hover .gradientUp {
            stop-color: #922c26;
         }
         #buttonSettings:hover .buttonBorder {
            fill: #922c26;
         }
         #buttonSettings:hover .gradientDown {
            stop-color: #ff6561;
         }
         #buttonSettings:hover .reflection {
            fill: #ff6a66;
         }         
         #buttonSettings .gradientUp {
            stop-color: #641e15;
         }
         #buttonSettings .border {
            fill: #641e15;
         }
         #buttonSettings .gradientDown {
            stop-color: #9f3026;
         }         
         #buttonSettings .reflection {
            fill: #c83e05;
         }         
         .gearLarge {
            fill: #FA9600;
         }
         .gearSmall {
            fill: #FF4A69;
         }
      ]]>
      </style>
</defs>
    <g>
        <linearGradient id="gradientSettings" x1="0%" y1="0%" x2="0%" y2="100%">
            <stop class="gradientUp" offset="0%" />
            <stop class="gradientDown" offset="100%" />
        </linearGradient>
        <path fill="url(#gradientSettings)" d="M0,0l0,39.5c0,5.6,4.7,10.3,10.5,10.3h43.1c5.8,0,10.5-4.6,10.5-10.3L64,0H0z"/>
    </g>
    <g>
        <path class="reflection" d="M53.5,45.8H10.5c-5,0-9.1-4-9.2-8.9l0,2.6c0,4.9,4.1,9,9.2,9h43.1c5.1,0,9.2-4,9.2-9l0-2.6
                C62.7,41.8,58.6,45.8,53.5,45.8z"/>
    </g>
    <g>
        <path class="buttonBorder" d="M62.7,0l0,39.5c0,5-4.1,9-9.2,9H10.5c-5.1,0-9.2-4-9.2-9V0H0v39.5c0,5.6,4.7,10.3,10.5,10.3h43.1c5.8,0,10.5-4.6,10.5-10.3
                V0H62.7z"/>
    </g>
    <path class="gearLarge" d="M36,27.1c0-0.5,0-1-0.1-1.4c1.1-0.5,2.2-1.2,3.3-1.9c-0.1-0.7-0.4-1.4-0.6-2c-1.3-0.1-2.6,0-3.9,0.2
            c-0.2-0.4-0.5-0.8-0.8-1.2c-0.3-0.4-0.6-0.7-0.9-1.1c0.6-1.1,1.1-2.2,1.6-3.5c-0.5-0.5-1.1-0.9-1.8-1.3c-1.1,0.7-2.1,1.5-3,2.4
            c-0.4-0.2-0.9-0.4-1.3-0.5c-0.4-0.1-0.9-0.2-1.4-0.3c-0.1-1.2-0.4-2.5-0.8-3.7c-0.7,0-1.4-0.1-2.1,0c-0.5,1.2-0.8,2.5-1,3.7
            c-0.5,0.1-0.9,0.2-1.4,0.3c-0.4,0.1-0.9,0.3-1.3,0.5c-0.8-0.9-1.8-1.8-2.8-2.5c-0.6,0.3-1.2,0.8-1.8,1.3c0.3,1.3,0.8,2.5,1.4,3.6
            c-0.3,0.3-0.6,0.7-0.9,1.1c-0.3,0.4-0.5,0.8-0.8,1.2c-1.2-0.2-2.5-0.4-3.8-0.4c-0.2,0.7-0.5,1.4-0.7,2.1c1,0.8,2.1,1.6,3.2,2.1
            c-0.1,0.5,0,0.9-0.1,1.4c0,0.5,0,1,0.1,1.4c-1.1,0.5-2.2,1.1-3.3,1.9c0.1,0.6,0.4,1.3,0.6,2c1.3,0.1,2.6,0,3.9-0.2
            c0.2,0.4,0.5,0.8,0.8,1.2c0.3,0.4,0.6,0.7,0.9,1.1c-0.6,1.1-1.1,2.2-1.6,3.5c0.5,0.5,1.1,0.9,1.8,1.3c1.1-0.7,2.1-1.5,3-2.4
            c0.4,0.2,0.9,0.4,1.3,0.5c0.4,0.1,0.9,0.2,1.4,0.3c0.1,1.2,0.4,2.5,0.8,3.7c0.7,0,1.4,0,2.1,0c0.5-1.2,0.8-2.5,1-3.7
            c0.5-0.1,0.9-0.2,1.4-0.3c0.4-0.1,0.9-0.3,1.3-0.5c0.8,0.9,1.8,1.8,2.8,2.5c0.6-0.3,1.2-0.8,1.8-1.3c-0.3-1.3-0.8-2.5-1.4-3.6
            c0.3-0.3,0.6-0.7,0.9-1.1c0.3-0.4,0.5-0.8,0.8-1.2c1.2,0.2,2.5,0.4,3.8,0.4c0.2-0.7,0.5-1.4,0.7-2c-1-0.8-2.1-1.6-3.2-2.1
            C36,28.1,35.9,27.6,36,27.1z M27.2,33.5c-1.3,0.4-2.8,0.4-4.1,0c-1.3-0.4-2.5-1.3-3.4-2.4c-0.8-1.1-1.3-2.5-1.3-4
            c0-1.4,0.4-2.8,1.3-4c0.8-1.2,2-2,3.4-2.4c1.3-0.4,2.8-0.4,4.1,0c1.3,0.4,2.5,1.3,3.4,2.4c0.8,1.1,1.3,2.5,1.3,4
            c0,1.4-0.4,2.8-1.3,4C29.7,32.2,28.5,33.1,27.2,33.5z"/>
    <path class="gearSmall" d="M51.4,18.3c0.2-0.5,0.3-1,0.3-1.6c0-0.5,0-1.1,0-1.6c1.1-0.5,2.2-1.3,3.2-2.1c-0.2-0.8-0.6-1.7-1.1-2.4
            c-1.4,0-2.7,0.2-3.9,0.6c-0.3-0.4-0.7-0.8-1.2-1.1c-0.4-0.3-0.9-0.6-1.4-0.8c0.1-1.2,0-2.6-0.2-3.9c-0.9-0.2-1.8-0.3-2.7-0.3
            c-0.7,1.2-1.2,2.5-1.4,3.7c-0.5,0.1-1,0.2-1.5,0.5c-0.5,0.2-1,0.5-1.4,0.8c-1-0.7-2.2-1.3-3.5-1.7c-0.6,0.6-1.2,1.4-1.6,2.1
            c0.7,1.2,1.6,2.2,2.5,3.1c-0.2,0.5-0.3,1-0.3,1.6c0,0.5,0,1.1,0,1.6c-1.1,0.5-2.2,1.3-3.2,2.1c0.2,0.9,0.6,1.7,1.1,2.5
            c1.4,0,2.7-0.2,3.9-0.6c0.3,0.4,0.7,0.8,1.2,1.1c0.4,0.3,0.9,0.6,1.4,0.8c-0.1,1.2,0,2.6,0.2,3.9c0.9,0.2,1.8,0.3,2.7,0.3
            c0.7-1.2,1.2-2.5,1.4-3.7c0.5-0.1,1-0.2,1.5-0.5c0.5-0.2,1-0.5,1.4-0.8c1,0.7,2.2,1.3,3.5,1.7c0.6-0.6,1.2-1.4,1.6-2.1
            C53.2,20.1,52.3,19.1,51.4,18.3z M47.6,16.3c-0.1,1.1-0.8,2.1-1.9,2.5c-1,0.4-2.2,0.3-3.1-0.3c-0.9-0.6-1.4-1.8-1.3-2.8
            c0.1-1.1,0.8-2,1.9-2.5c1-0.4,2.2-0.3,3.1,0.3C47.2,14.1,47.7,15.2,47.6,16.3z"/>
</svg>