<?xml version="1.0" encoding="utf-8"?>
<!DOCTYPE svg PUBLIC "-//W3C//DTD SVG 1.1//EN" "http://www.w3.org/Graphics/SVG/1.1/DTD/svg11.dtd">
<svg version="1.1" id="guide"
	 xmlns="http://www.w3.org/2000/svg" xmlns:xlink="http://www.w3.org/1999/xlink"
	 x="0px" y="0px" width="284px" height="205px" viewBox="0 0 284 205" enable-background="new 0 0 284 205" xml:space="preserve">
<defs>
  <style type="text/css">
  	<![CDATA[
    #guide path, line {
      fill: none;
      stroke: black;
      stroke-width: 1;
    }
    #guide .axis {
      fill: none;
      stroke: grey;
      stroke-width: 1;
      stroke-dasharray: 10 5 3 5;
    ]]></style>
</defs>
<path d="M141.5,204.4c0.3,0.3,0.6,0.2,0.7-0.2"/>
<line x1="141.5" y1="204.4" x2="141.8" y2="204.3"/>
<path d="
	M113.6,155.2c-9.5-7.4-18.3-15.9-26.3-24.9c-7.8-8.8-14.9-18.2-20.5-28.5c-2.9-5.3-5.5-10.7-7.3-16.4c-1.7-5.5-3-11.5-2.3-17.3
	c0.8-5.7,3.5-10.9,8.8-13.6c5.3-2.7,11.2-2.4,16.9-1.8c5.6,0.6,11.3,2.5,16.5,4.7c5.5,2.4,10.9,4.9,16,8c10.3,6.2,20,13.3,28.9,21.4
	c3.8,3.4,7.4,6.9,11,10.5"/>
<line x1="112.5" y1="159.1" x2="113.6" y2="155.2"/>
<line x1="141.5" y1="204.4" x2="123.2" y2="181.7"/>
<path d="
	M130.6,163.8c-9.5-7.5-18.4-15.8-25.7-25.6c-3.6-4.7-7.1-9.8-9.5-15.2c-2.3-5.2-4.9-10.9-4.9-16.7c0-2.9,0.1-5.8,1.4-8.4
	c1.2-2.4,3-4.6,5.5-5.8c5.2-2.6,11.6-2.4,17.2-1c11.2,2.8,21.8,8.2,31.1,15c2.2,1.6,4.4,3.3,6.6,5"/>
<path d="
	M242.3,131.2c2.1,2.8,7.5,10.1,7.5,10.1s-4.3,17-6.3,24.5c-2,8-4.1,15.9-6.1,23.9"/>
<path d="
	M262.9,61.9c-1,11.9-3.3,23.4-6.6,34.8c-3.3,11.5-8,22.4-13.3,33c-0.2,0.5-0.7,1.4-0.7,1.4"/>
<line x1="182.6" y1="74.3" x2="262.9" y2="61.9"/>
<path d="
	M182.6,74.3c-4.8,10.8-8.7,22.1-11.2,33.7c-2.4,11.4-3.9,22.9-3.4,34.5l-13.4,13.2l-12.3,48.5"/>
<line x1="61.7" y1="57.7" x2="61.4" y2="58"/>
<path d="
	M153.2,161.2c-1.4-5.8-2.6-11.5-2.9-17.5c-0.2-6-0.1-11.8,0.4-17.8c0.8-11.8,3.4-23.9,6.9-35.2c3.5-11.4,7.6-22.8,13.1-33.5
	c2.8-5.4,5.8-10.8,8.9-16c3.1-5.1,6.7-10,10.3-14.7c3.6-4.8,7.9-9,12.2-13.1c4.2-3.9,9-7.5,14.2-10c5.4-2.6,11-4,17-3.1
	c5.5,0.8,10.8,4.6,13.8,9.2c6.4,10,8.4,22,8.4,33.7c0,6.6-0.5,13.2-1.2,19.8"/>
<line x1="236.5" y1="1.2" x2="236.9" y2="1.3"/>
<path d="
	M140.5,182.9c-2.2-0.6-5.1-2.9-5.1-5.4c0-2.6,4.3-3.2,6-2.4"/>
<line x1="141.4" y1="175.1" x2="140.5" y2="182.9"/>
<path d="
	M139.3,183.2c0.4,0,0.9-0.1,1.2-0.4"/>
<path d="
	M141.4,175.1c-0.1-0.1-0.2-0.1-0.4-0.2"/>
<path d="
	M110.5,187.1c5.8,0.8,9.4-6.2,10.5-10.9c1.2-4.8,1.5-12.4-3.2-15.6c-0.5-0.3-1.1-0.6-1.7-0.7"/>
<line x1="88" y1="190.2" x2="9.9" y2="174"/>
<line x1="96.7" y1="148.1" x2="18.7" y2="131.9"/>
<line x1="139.3" y1="183.2" x2="119.1" y2="181.3"/>
<line x1="141.1" y1="174.9" x2="121.7" y2="168.6"/>
<line x1="110.5" y1="187.1" x2="99.9" y2="184.9"/>
<line x1="116.1" y1="159.9" x2="105.6" y2="157.7"/>
<path d="
	M9.9,174c5.7,1.5,10.6-4.3,13.1-8.6c2.9-5,4.5-11.1,4.5-16.9c0-6-1.8-15.2-8.8-16.7"/>
<path d="
	M14.3,133.9c6.4,0,8.9,7,9.3,12.3c0.4,5.5-0.7,11.1-3.2,16c-2.3,4.5-7.1,10.2-12.8,8.4c-5.6-1.8-6.9-9.3-6.9-14.4
	C0.7,148.1,4.8,135.2,14.3,133.9"/>
<path d="
	M18.7,131.9c-11-1.9-17.5,12.4-18.4,21.2c-0.4,4.1-0.5,9.3,1.4,13.1c1.7,3.3,4,7.3,8.2,7.8"/>
<path d="
	M96.7,148.1c5.9,1.3,7.8,7.8,8.6,13c0.9,5.5-0.3,12.2-2.6,17.3c-2.7,5.8-7.4,12.8-14.7,11.9"/>
<path d="
	M88,190.2c5.2,0.9,9.4-2.2,12.5-6.1c3.3-4.2,5.2-9.8,5.8-15c0.5-4.3,0.4-8.9-1.3-13c-1.5-3.5-4.1-7.5-8.3-8"/>
<path d="
	M142.2,204.2c-0.1,0-0.3,0.1-0.4,0.1C141.9,204.3,142.1,204.3,142.2,204.2"/>
<path d="
	M132.9,172.2l-5-18l3.9-6.7c5.3,8.8,11.4,17.1,18.7,24.3"/>
<line x1="135.9" y1="182.9" x2="141.8" y2="204.3"/>
<path d="
	M151.7,73.1c-0.2,0.6-1.3,1.1-1,0.4"/>
<path d="
	M152.1,67.5c0.3-0.4,0.9,0.3,0.8,0.7"/>
<line x1="152.8" y1="68.2" x2="151.7" y2="73.1"/>
<line x1="152.1" y1="67.5" x2="150.7" y2="73.4"/>
<path d="
	M153.8,62.3c-3.9,0-6.4,5.3-7.2,7.3c-0.7,1.9-2.7,8,0.3,10.6"/>
<path d="
	M155.6,70.4c-0.6,2.7-1.9,5-3.5,7.3c-1.5,2.1-4.6,3.3-5.6,0.1c-0.8-2.5,0.1-5.5,1-7.9c0.8-2.3,2.4-5.1,4.6-6.3
	C156.4,61.3,156.1,68.1,155.6,70.4"/>
<path d="
	M145.8,79.8c-4.1-2.6-1.8-9-1.2-10.7c0.7-2.2,3.5-7.8,7.9-7.3"/>
<path d="
	M153.8,62.3c2,0.8,2.4,3.4,2.3,5.3c-0.1,2-0.4,3.3-1.3,5.7c-1,2.6-4.5,8.6-7.8,6.9"/>
<path d="
	M152.4,66.9c2.5,1.3-0.6,9.9-3.4,9"/>
<path d="
	M148.5,72.2c-0.2,1.3-0.6,5.2,2,4.1c1.9-0.9,2.9-3.2,3.4-5c0.5-2,0.2-5.6-2.1-4.4C149.8,67.9,149.1,70.3,148.5,72.2"/>
<path d="
	M149,75.9c-1.5-0.8-0.5-4-0.1-5.2c0.4-1.1,1.9-4.3,3.5-3.8"/>
<path d="
	M150.8,67.6c0,2.4-0.8,5-2.6,6.7"/>
<line x1="146.9" y1="80.2" x2="145.6" y2="79.7"/>
<line x1="153.8" y1="62.3" x2="152.4" y2="61.7"/>
<path d="
	M271.6,109.5c0.5,2.6-0.4,5.7-1.5,8c-1,2.3-2.4,4.7-4.5,6.2c-2.8,1.9-4.5-0.8-4.5-3.5c0-2.7,0.7-5.4,1.8-7.9c1-2.1,2.3-4.3,4.2-5.5
	C269.6,105.2,271.3,107,271.6,109.5"/>
<path d="
	M269.6,105.8c2,0.3,2.2,3.7,2.1,5.2c-0.1,2-0.5,4.1-1.3,5.9c-1.1,2.6-4,8.9-7.9,7.6"/>
<path d="
	M262.2,124.4c-1.7-0.8-2.1-3.3-2-5c0.1-2.1,0.7-4.1,1.4-6.1c0.6-1.7,1.6-3.6,2.8-5c0.9-1.1,3.2-3.5,4.8-2.5"/>
<line x1="262.5" y1="124.5" x2="262.2" y2="124.4"/>
<line x1="269.6" y1="105.8" x2="269.3" y2="105.7"/>
<path d="
	M260.3,118.6c-6.6-1.8-2.4-12.9,3.7-9.8"/>
<path d="
	M216.9,98.8c2.6-0.4,5.1-0.8,7.7-1.2"/>
<line x1="221.7" y1="94.2" x2="219.7" y2="101.9"/>
<line x1="141.8" y1="204.6" x2="237.4" y2="189.7"/>
<ellipse transform="matrix(-0.9255 -0.3786 0.3786 -0.9255 468.8448 322.8805)" cx="266.2" cy="115.3" rx="1.5" ry="3.1"/>
<line class="axis" x1="133.4" y1="64.8" x2="283.6" y2="122.2"/>
</svg>
