<?xml version="1.0" encoding="UTF-8" standalone="no"?>
<svg
   xmlns="http://www.w3.org/2000/svg"
   version="1.1"
   width="365.15118"
   height="205.00392">
  <g
     transform="translate(126.84196,-535.91461)"
     id="layer1">
    <g
       transform="matrix(0.41717542,0,0,0.41717542,387.96924,311.78712)"
       id="g9543">
      <path
         d="m -790.10091,1024.1613 0.22502,0.45 0,0.45 0,0.45 0,0.675 -0.22502,0.225 -0.22499,0.45 -0.44999,0.45 -0.22502,0.225 -0.44999,0 -0.45001,0.225 -0.44999,-0.225 -0.45001,0 -0.44999,-0.225 -0.22499,-0.45"
         id="path7645"
         style="fill:none;stroke:#000000;stroke-width:1.80000007;stroke-linecap:round;stroke-linejoin:round;stroke-miterlimit:10;stroke-opacity:1;stroke-dasharray:none" />
      <path
         d="m -791.00091,1024.6113 0.9,-0.45"
         id="path7647"
         style="fill:none;stroke:#000000;stroke-width:1.35000002;stroke-linecap:round;stroke-linejoin:round;stroke-miterlimit:10;stroke-opacity:1;stroke-dasharray:none" />
      <path
         d="m -792.80091,1026.1863 0.22502,0.225 0.22499,0 0.44999,0 0.22502,0 0.22499,-0.225 0.225,-0.225 0.22499,-0.225 0,-0.45 0,-0.225 -0.22499,-0.45"
         id="path7649"
         style="fill:none;stroke:#000000;stroke-width:1.80000007;stroke-linecap:round;stroke-linejoin:round;stroke-miterlimit:10;stroke-opacity:1;stroke-dasharray:none" />
      <path
         d="m -793.47589,1026.8613 0.67498,-0.675"
         id="path7651"
         style="fill:none;stroke:#000000;stroke-width:1.35000002;stroke-linecap:round;stroke-linejoin:round;stroke-miterlimit:10;stroke-opacity:1;stroke-dasharray:none" />
      <path
         d="m -792.80091,1025.9613 1.8,-0.45"
         id="path7653"
         style="fill:none;stroke:#000000;stroke-width:1.35000002;stroke-linecap:round;stroke-linejoin:round;stroke-miterlimit:10;stroke-opacity:1;stroke-dasharray:none" />
      <path
         d="m -789.20091,1026.8613 -2.02499,0.675"
         id="path7655"
         style="fill:none;stroke:#000000;stroke-width:1.80000007;stroke-linecap:round;stroke-linejoin:round;stroke-miterlimit:10;stroke-opacity:1;stroke-dasharray:none" />
      <path
         d="m -882.80091,903.7863 -3.825,-2.47501 -3.825,-2.7 -3.82499,-2.47499 -3.825,-2.7 -3.60001,-2.7 -3.82499,-2.70001 -3.825,-2.7"
         id="path7657"
         style="fill:none;stroke:#000000;stroke-width:1.80000007;stroke-linecap:round;stroke-linejoin:round;stroke-miterlimit:10;stroke-opacity:1;stroke-dasharray:none" />
      <path
         d="m -916.55091,879.71129 -3.825,-2.7 -3.6,-2.925 -3.59998,-2.925 -3.825,-2.92499 -3.6,-3.14999 -3.60001,-2.925 -3.37501,-3.15002 -3.6,-2.92499 -3.59999,-3.14999 -3.375,-3.15002 -3.375,-3.14999 -3.6,-3.14999 -3.15001,-3.37501 -3.37499,-3.14999 -3.375,-3.15002 -3.15,-3.37498 -3.375,-3.15002 -3.15001,-3.37498 -3.14998,-3.37502 -2.92502,-3.14999 -3.14999,-3.37501 -2.92501,-3.37498 -2.92499,-3.37501 -2.925,-3.37501 -2.925,-3.14999 -2.7,-3.37501 -2.7,-3.37499 -2.7,-3.37501 -2.475,-3.37498 -2.7,-3.37501 -2.475,-3.14999 -2.475,-3.37501 -2.25,-3.37499 -2.475,-3.37501 -2.025,-3.14999 -2.25,-3.37501 -2.25,-3.14999 -2.025,-3.37501 -1.8,-3.14999 -2.025,-3.37501 -1.8,-3.14999 -1.8,-3.15002 -1.8,-3.14999 -1.575,-3.14999 -1.575,-3.15002 -1.35,-2.92495 -1.575,-3.15003 -1.35,-2.92504 -1.125,-3.14995 -1.35,-2.92502 -1.125,-2.92496 -0.9,-2.92504 -0.9,-2.69996 -0.9,-2.92504 -0.9,-2.69996 -0.675,-2.92504 -0.675,-2.47498 -0.675,-2.70003 -0.45,-2.69998 -0.45,-2.47505 -0.225,-2.69996 -0.225,-2.47498 -0.225,-2.25006 0,-2.47497 0,-2.24999 0,-2.24999 0.225,-2.24997 0.225,-2.25007 0.225,-2.02499 0.45,-2.24998 0.45,-2.025 0.45,-1.8 0.675,-2.025 0.675,-1.8 0.675,-1.8 0.9,-1.57501 0.9,-1.8 1.125,-1.57502 1.125,-1.57493 1.125,-1.35003 1.125,-1.35002 1.35,-1.35002 1.35,-1.34995 1.575,-1.12502 1.35,-1.35003 1.8,-0.89996 1.575,-1.12504 1.8,-0.89996 1.8,-0.90004 1.8,-0.89996 2.025,-0.67505 2.025,-0.67497 2.025,-0.67498 2.25,-0.44997 2.25,-0.45007 2.25,-0.44997 2.25,-0.225 2.475,-0.22499 2.475,-0.22499 2.475,-0.22498 2.7,0 2.7,0 2.7,0.22498 2.7,0 2.70001,0.22499 2.92499,0.44999 2.925,0.22499 2.925,0.44999 3.15,0.67503 2.925,0.44999 3.15,0.67498 3.15,0.67505 3.14999,0.89996 3.37502,0.90003 3.14999,0.89997 3.37501,0.90003 3.37499,1.12497 3.375,1.12502 3.375,1.12495 3.6,1.35003 3.375,1.35002 3.6,1.35002 3.60001,1.34995 3.37498,1.57501 3.60001,1.57501 3.82499,1.57501 3.60001,1.8 3.6,1.8 3.60001,1.80002 3.825,1.8 3.82499,2.02498 3.60001,2.025 3.825,2.02499 3.6,2.025 3.825,2.24999 3.825,2.24999 3.82499,2.25005 3.825,2.24998 3.60001,2.24999 3.82499,2.47498 3.825,2.47505 3.825,2.47497 3.825,2.69998 3.6,2.47505 3.825,2.69996 3.825,2.70004 3.82499,2.69997 3.60001,2.69996 3.825,2.92504 3.6,2.69996 3.60001,2.92504 3.82499,2.92503 3.60001,2.92496 3.6,2.92504 3.59998,3.14995 3.6,2.92502 3.60001,3.15003 3.37501,3.14998 3.6,3.14999 3.37499,3.14999 3.37501,3.15002 3.37498,3.14999 3.37501,3.14999 3.37501,3.37501 3.37499,3.14999 3.14999,3.37501 3.15001,3.14999 3.14999,3.37501 3.15002,3.37501 2.925,3.14999 3.14999,3.37501 2.925,3.37499 2.92499,3.37501 2.925,3.37498 2.7,3.15002 2.70001,3.37498 2.7,3.37501 2.7,3.37499 2.47501,3.37501 2.47498,3.37501 2.47501,3.14999 2.47499,3.37501 2.25001,3.37498 2.47501,3.37501 2.025,3.14999 2.24999,3.37502 2.02499,3.14999 2.025,3.37501 2.02502,3.14999"
         id="path7659"
         style="fill:none;stroke:#000000;stroke-width:1.80000007;stroke-linecap:round;stroke-linejoin:round;stroke-miterlimit:10;stroke-opacity:1;stroke-dasharray:none" />
      <path
         d="m -883.0259,905.5863 0.22499,-1.8"
         id="path7661"
         style="fill:none;stroke:#000000;stroke-width:1.80000007;stroke-linecap:round;stroke-linejoin:round;stroke-miterlimit:10;stroke-opacity:1;stroke-dasharray:none" />
      <path
         d="M -792.80091,1026.1863 -854.0009,964.53631"
         id="path7663"
         style="fill:none;stroke:#000000;stroke-width:1.80000007;stroke-linecap:round;stroke-linejoin:round;stroke-miterlimit:10;stroke-opacity:1;stroke-dasharray:none" />
      <path
         d="m -947.37589,821.4363 0.225,-2.70001 0.44998,-2.7 0.45002,-2.47498 0.44998,-2.70001 0.45002,-2.47501 0.67498,-2.24999 0.67501,-2.47501 0.9,-2.24998 0.9,-2.25002 0.9,-2.24999 0.9,-2.025 1.125,-2.25001 1.35001,-2.025 1.125,-1.8 1.34998,-2.025 1.35002,-1.8 1.57498,-1.8 1.57501,-1.57498 1.57501,-1.57501 1.8,-1.57501 1.8,-1.57498 1.79998,-1.57501 2.02502,-1.34999 1.8,-1.12502 2.24999,-1.34999 2.025,-1.12499 2.25001,-1.12502 2.24999,-1.125 2.47501,-0.9 2.24999,-0.9 2.47501,-0.9 2.69998,-0.67498 2.47501,-0.67501 2.7,-0.67501 2.7,-0.67498 2.925,-0.45001 2.925,-0.44999 2.92499,-0.22502 2.925,-0.22499 3.15002,-0.225 2.92499,-0.22499 3.37499,0 3.15002,0 3.37498,0 3.15002,0.22499 3.6,0.225 3.37498,0.22499 3.37502,0.22502 3.6,0.44999 3.59998,0.45001 3.82502,0.67498 3.59998,0.67501 3.825,0.67501 3.82502,0.67498 3.825,0.9 3.825,0.9 3.825,0.9 4.04999,1.125 4.04999,1.12502 3.15002,2.47498 3.14999,2.7 3.15001,2.70001 3.14999,2.7 3.14999,2.7 3.15002,2.70001 2.925,2.7 3.14999,2.69998 2.92499,2.92502 2.925,2.69998 2.925,2.92502 2.92502,2.925 2.925,2.92499 2.7,2.70001 2.69998,2.92499 2.7,2.925 2.7,2.925 2.70001,2.92499 2.47501,2.925 2.47498,2.925 2.47501,2.92502 2.47501,2.925 2.24999,3.14999 2.24999,2.925 2.25001,2.92499 2.24999,2.925 2.25002,2.92502 2.025,2.925 2.02499,2.7 1.8,2.925"
         id="path7665"
         style="fill:none;stroke:#000000;stroke-width:1.80000007;stroke-linecap:round;stroke-linejoin:round;stroke-miterlimit:10;stroke-opacity:1;stroke-dasharray:none" />
      <path
         d="m -775.2509,948.7863 -2.70001,-0.9 -2.92499,-0.9"
         id="path7667"
         style="fill:none;stroke:#000000;stroke-width:1.80000007;stroke-linecap:round;stroke-linejoin:round;stroke-miterlimit:10;stroke-opacity:1;stroke-dasharray:none" />
      <path
         d="m -846.5759,913.91131 -3.14999,-2.25002 -3.15002,-2.025 -3.37498,-2.24999 -3.15002,-2.25001 -3.14999,-2.47498 -3.37501,-2.25002 -3.14999,-2.47498 -3.14999,-2.47501 -3.15002,-2.47501 -3.14999,-2.47499 -3.14999,-2.47501 -3.15002,-2.47498 -3.14999,-2.7 -2.92499,-2.47501 -3.15002,-2.7 -2.925,-2.70001 -3.14999,-2.7 -2.92499,-2.69998 -2.925,-2.7 -2.925,-2.7 -2.7,-2.925 -2.925,-2.7 -2.7,-2.925 -2.925,-2.7 -2.7,-2.925 -2.47501,-2.7 -2.7,-2.925 -2.70001,-2.925 -2.47498,-2.92502 -2.47501,-2.69998 -2.47501,-2.92502 -2.24999,-2.925 -2.47501,-2.92499 -2.24999,-2.70001 -2.24999,-2.92499"
         id="path7669"
         style="fill:none;stroke:#000000;stroke-width:1.80000007;stroke-linecap:round;stroke-linejoin:round;stroke-miterlimit:10;stroke-opacity:1;stroke-dasharray:none" />
      <path
         d="m -730.92591,856.9863 -2.025,-2.925 -2.02499,-2.925 -2.025,-2.92499 -2.02499,-2.925 -2.25002,-2.92502 -2.24999,-2.925 -2.24999,-2.925 -2.25001,-2.92499 -2.47499,-3.14999 -2.47501,-2.925 -2.47501,-2.925 -2.7,-2.92502 -2.47498,-2.925 -2.70001,-2.92499 -2.7,-2.925 -2.925,-2.925 -2.7,-2.92499 -2.925,-2.925 -2.92499,-2.925 -2.70001,-2.7 -3.15001,-2.925 -2.925,-2.7 -2.925,-2.925 -3.14999,-2.7 -3.14999,-2.7 -3.15001,-2.70001 -3.14999,-2.7 -3.15002,-2.7 -3.14999,-2.70001 -3.14999,-2.47498 -4.05002,-1.12502 -3.825,-1.125 -3.825,-0.9 -3.82499,-0.9 -3.825,-0.9 -3.825,-0.67498 -3.6,-0.67501 -3.60001,-0.67501 -3.6,-0.44998 -3.59998,-0.67501 -3.6,-0.22499 -3.37502,-0.45002 -3.37498,-0.22499 -3.37501,-0.22499 -3.37501,-0.225 -3.14999,0 -3.37501,0 -2.925,0 -3.14999,0 -3.14999,0.225 -2.92502,0.22499 -2.925,0.45001 -2.7,0.225 -2.925,0.44998 -2.7,0.67501 -2.69998,0.44999 -2.47501,0.67501 -2.7,0.675 -2.47501,0.9 -2.24999,0.90001 -2.47501,0.9 -2.24999,0.9 -2.24999,1.12499 -2.02502,1.125 -2.025,1.12499 -2.02499,1.35002 -2.025,1.12499 -1.8,1.57501 -1.8,1.34999 -1.80001,1.57501 -1.57498,1.57498 -1.57501,1.57501 -1.575,1.57501"
         id="path7671"
         style="fill:none;stroke:#000000;stroke-width:1.80000007;stroke-linecap:round;stroke-linejoin:round;stroke-miterlimit:10;stroke-opacity:1;stroke-dasharray:none" />
      <path
         d="m -855.57591,964.31131 62.10002,62.54999"
         id="path7673"
         style="fill:none;stroke:#000000;stroke-width:1.80000007;stroke-linecap:round;stroke-linejoin:round;stroke-miterlimit:10;stroke-opacity:1;stroke-dasharray:none" />
      <path
         d="m -883.70091,904.6863 0,0.67501"
         id="path7675"
         style="fill:none;stroke:#000000;stroke-width:1.80000007;stroke-linecap:round;stroke-linejoin:round;stroke-miterlimit:10;stroke-opacity:1;stroke-dasharray:none" />
      <path
         d="m -1050.4259,652.91129 -1.125,1.57501 -1.125,1.35001 -0.9,1.57501 -1.125,1.80002 -0.675,1.57493 -0.9,1.8 -0.675,1.80001 -0.675,1.8 -0.45,2.025 -0.45,2.02498 -0.45,2.02508 -0.45,2.02499 -0.225,2.24998 0,2.025 -0.225,2.47498 0,2.24999 0.225,2.25005 0,2.47497 0.225,2.47499 0.45,2.47505 0.45,2.47497 0.45,2.69997 0.45,2.47505 0.675,2.69997 0.675,2.70004 0.675,2.92496 0.9,2.70004 0.9,2.69996 1.125,2.92504 1.125,2.92496 1.125,2.92503 1.125,2.92496 1.35,3.15002 1.35,2.92495 1.575,3.15003 1.35,2.925 1.8,3.15002 1.575,3.14999 1.8,3.14999 1.8,3.15002 1.8,3.14999 2.025,3.37501 2.025,3.14999 2.025,3.14999 2.025,3.37501 2.25,3.14999 2.25,3.37501 2.475,3.37501 2.25,3.14999 2.475,3.37501 2.475,3.37498 2.7,3.15002 2.475,3.37499 2.7,3.37501 2.7,3.37498 2.92501,3.15002 2.92499,3.37498 2.70001,3.37501 2.92499,3.37501 3.15001,3.14999 2.92499,3.37499 3.15001,3.37501 3.14999,3.14999 3.15,3.37501 3.15,3.14999 3.375,3.15002 3.15001,3.37498 3.37499,3.15002 3.375,3.14999 3.375,3.14999 3.37499,3.15002 3.60001,3.14999 3.375,2.92499 3.6,3.15002 3.6,2.925 3.60001,3.14999 3.6,2.92499 3.59998,2.925 3.6,2.925 3.60001,2.7"
         id="path7677"
         style="fill:none;stroke:#000000;stroke-width:1.80000007;stroke-linecap:round;stroke-linejoin:round;stroke-miterlimit:10;stroke-opacity:1;stroke-dasharray:none" />
      <path
         d="m -907.10091,888.26129 3.37501,2.47501 3.37501,2.47501 3.14999,2.24999 3.37501,2.25001 3.37498,2.47499 3.37501,2.25001 3.37499,2.24999"
         id="path7679"
         style="fill:none;stroke:#000000;stroke-width:1.80000007;stroke-linecap:round;stroke-linejoin:round;stroke-miterlimit:10;stroke-opacity:1;stroke-dasharray:none" />
      <path
         d="m -810.57591,770.36131 -0.67498,0.9"
         id="path7681"
         style="fill:none;stroke:#000000;stroke-width:1.80000007;stroke-linecap:round;stroke-linejoin:round;stroke-miterlimit:10;stroke-opacity:1;stroke-dasharray:none" />
      <path
         d="m -882.80091,903.7863 -0.9,0.9"
         id="path7683"
         style="fill:none;stroke:#000000;stroke-width:1.80000007;stroke-linecap:round;stroke-linejoin:round;stroke-miterlimit:10;stroke-opacity:1;stroke-dasharray:none" />
      <path
         d="m -613.47589,884.66131 4.72497,9.45"
         id="path7685"
         style="fill:none;stroke:#000000;stroke-width:1.80000007;stroke-linecap:round;stroke-linejoin:round;stroke-miterlimit:10;stroke-opacity:1;stroke-dasharray:none" />
      <path
         d="m -844.7759,888.26129 2.925,3.37501 2.92499,3.37501 3.15002,3.14999 2.925,3.37501 2.925,3.14999 3.14999,3.14999 2.92499,3.15002 3.15002,2.925 2.925,2.92499 3.14999,2.925 2.92499,2.7 3.15002,2.70001 2.925,2.7 3.14999,2.47498 2.92499,2.7 3.15002,2.25002 2.925,2.47498 2.925,2.25002 3.14999,2.24999 2.92499,2.24999 2.925,2.02502 3.15002,2.025 2.92499,1.8"
         id="path7687"
         style="fill:none;stroke:#000000;stroke-width:1.80000007;stroke-linecap:round;stroke-linejoin:round;stroke-miterlimit:10;stroke-opacity:1;stroke-dasharray:none" />
      <path
         d="m -670.17591,947.8863 1.35002,-2.025 1.34999,-2.02499 1.12499,-2.025 1.125,-2.02502 1.12502,-2.24999 1.12499,-2.24999 0.9,-2.47501 1.125,-2.24999 0.9,-2.47501 0.67501,-2.7 0.9,-2.47501"
         id="path7689"
         style="fill:none;stroke:#000000;stroke-width:1.80000007;stroke-linecap:round;stroke-linejoin:round;stroke-miterlimit:10;stroke-opacity:1;stroke-dasharray:none" />
      <path
         d="m -849.05091,906.26131 4.27501,-18.00002"
         id="path7691"
         style="fill:none;stroke:#000000;stroke-width:1.80000007;stroke-linecap:round;stroke-linejoin:round;stroke-miterlimit:10;stroke-opacity:1;stroke-dasharray:none" />
      <path
         d="m -790.10091,1024.1613 -28.57498,-56.92499"
         id="path7693"
         style="fill:none;stroke:#000000;stroke-width:1.80000007;stroke-linecap:round;stroke-linejoin:round;stroke-miterlimit:10;stroke-opacity:1;stroke-dasharray:none" />
      <path
         d="m -834.87589,934.6113 -14.17502,-28.34999"
         id="path7695"
         style="fill:none;stroke:#000000;stroke-width:1.80000007;stroke-linecap:round;stroke-linejoin:round;stroke-miterlimit:10;stroke-opacity:1;stroke-dasharray:none" />
      <path
         d="m -659.60091,923.5863 -0.67498,2.47501 -0.9,2.47498 -0.90001,2.47501 -0.9,2.24999 -0.9,2.25001 -1.12499,2.24999 -0.9,2.025 -1.125,2.25002 -1.35001,2.02499 -1.125,1.8 -1.12499,2.025"
         id="path7697"
         style="fill:none;stroke:#000000;stroke-width:1.80000007;stroke-linecap:round;stroke-linejoin:round;stroke-miterlimit:10;stroke-opacity:1;stroke-dasharray:none" />
      <path
         d="m -849.05091,906.26131 -1.125,0.44999 4.50001,-18 0.9,-0.45001"
         id="path7699"
         style="fill:none;stroke:#000000;stroke-width:1.80000007;stroke-linecap:round;stroke-linejoin:round;stroke-miterlimit:10;stroke-opacity:1;stroke-dasharray:none" />
      <path
         d="m -850.17591,906.7113 13.95001,27.67501"
         id="path7701"
         style="fill:none;stroke:#000000;stroke-width:1.80000007;stroke-linecap:round;stroke-linejoin:round;stroke-miterlimit:10;stroke-opacity:1;stroke-dasharray:none" />
      <path
         d="m -819.80089,967.23631 28.57499,57.37499"
         id="path7703"
         style="fill:none;stroke:#000000;stroke-width:1.80000007;stroke-linecap:round;stroke-linejoin:round;stroke-miterlimit:10;stroke-opacity:1;stroke-dasharray:none" />
      <path
         d="m -1049.7509,652.01132 -0.675,0.89997"
         id="path7705"
         style="fill:none;stroke:#000000;stroke-width:1.80000007;stroke-linecap:round;stroke-linejoin:round;stroke-miterlimit:10;stroke-opacity:1;stroke-dasharray:none" />
      <path
         d="m -579.5009,949.6863 0.44999,-0.22499 0.22499,-0.22502 0.22498,-0.225 0.22508,-0.22499"
         id="path7707"
         style="fill:none;stroke:#000000;stroke-width:1.80000007;stroke-linecap:round;stroke-linejoin:round;stroke-miterlimit:10;stroke-opacity:1;stroke-dasharray:none" />
      <path
         d="m -786.05089,1026.4113 -0.22502,0.225 -0.44999,0.225 -0.22499,0.225 -0.45001,0.225 -0.44999,0 -0.45002,0 -0.44998,-0.225 -0.45002,-0.225 -0.22499,-0.45 -0.44999,-0.225 -0.22502,-0.45 0,-0.675 0,-0.45 0,-0.45"
         id="path7709"
         style="fill:none;stroke:#000000;stroke-width:1.80000007;stroke-linecap:round;stroke-linejoin:round;stroke-miterlimit:10;stroke-opacity:1;stroke-dasharray:none" />
      <path
         d="m -786.95089,1025.7363 0.9,0.45"
         id="path7711"
         style="fill:none;stroke:#000000;stroke-width:1.35000002;stroke-linecap:round;stroke-linejoin:round;stroke-miterlimit:10;stroke-opacity:1;stroke-dasharray:none" />
      <path
         d="m -788.97591,1024.6113 0,0.225 0,0.45 0.22502,0.225 0.22499,0.225 0.22499,0.225 0.225,0 0.22502,0.225 0.44999,-0.225 0.22499,-0.225 0.22502,-0.225"
         id="path7713"
         style="fill:none;stroke:#000000;stroke-width:1.80000007;stroke-linecap:round;stroke-linejoin:round;stroke-miterlimit:10;stroke-opacity:1;stroke-dasharray:none" />
      <path
         d="m -790.10091,1024.1613 0.9,0.45"
         id="path7715"
         style="fill:none;stroke:#000000;stroke-width:1.35000002;stroke-linecap:round;stroke-linejoin:round;stroke-miterlimit:10;stroke-opacity:1;stroke-dasharray:none" />
      <path
         d="m -775.70089,1022.3613 186.97499,-69.75"
         id="path7717"
         style="fill:none;stroke:#000000;stroke-width:1.35000002;stroke-linecap:round;stroke-linejoin:round;stroke-miterlimit:10;stroke-opacity:1;stroke-dasharray:none" />
      <path
         d="m -788.97591,1024.3863 3.15001,-1.125"
         id="path7719"
         style="fill:none;stroke:#000000;stroke-width:1.35000002;stroke-linecap:round;stroke-linejoin:round;stroke-miterlimit:10;stroke-opacity:1;stroke-dasharray:none" />
      <path
         d="m -787.17591,1027.0863 207.67501,-77.4"
         id="path7721"
         style="fill:none;stroke:#000000;stroke-width:1.80000007;stroke-linecap:round;stroke-linejoin:round;stroke-miterlimit:10;stroke-opacity:1;stroke-dasharray:none" />
      <path
         d="m -786.05089,1026.4113 63.44998,-105.52501 -0.9,-0.67498 -63.44998,105.29999"
         id="path7723"
         style="fill:none;stroke:#000000;stroke-width:1.80000007;stroke-linecap:round;stroke-linejoin:round;stroke-miterlimit:10;stroke-opacity:1;stroke-dasharray:none" />
      <path
         d="m -685.4759,886.46131 -38.02501,33.75"
         id="path7725"
         style="fill:none;stroke:#000000;stroke-width:1.80000007;stroke-linecap:round;stroke-linejoin:round;stroke-miterlimit:10;stroke-opacity:1;stroke-dasharray:none" />
      <path
         d="m -416.1509,589.23629 -0.89997,-0.67498 -1.12503,-0.67497 -1.12502,-0.45006 -1.12497,-0.44998 -1.35001,-0.44999 -1.12504,-0.22499 -1.34995,-0.22498 -1.57501,-0.22508 -1.35001,0 -1.57502,0 -1.57493,0 -1.57502,0.22508 -1.57501,0.22498 -1.8,0.44998 -1.80001,0.44999 -1.8,0.44999 -1.8,0.67503 -2.025,0.67498 -2.02499,0.67497 -2.025,0.90004 -2.02499,0.89996 -2.025,0.90004 -2.25005,1.12504 -2.025,1.12495 -2.24998,1.12503 -2.24999,1.34994 -2.47498,1.35003 -2.25005,1.35002 -2.47497,1.57501 -2.47499,1.57502 -2.47505,1.57493 -2.47497,1.8 -2.47498,1.80001 -2.70004,1.8 -2.47497,2.025 -2.69998,2.02498 -2.70003,2.02508 -2.69997,2.02499 -2.70005,2.24998 -2.69996,2.24999 -2.70004,2.47498 -2.92496,2.25006 -2.70004,2.47497 -2.92496,2.47498 -2.70004,2.70004 -2.92496,2.69997 -2.92504,2.69996 -2.92495,2.70004 -2.92503,2.69998 -2.92497,2.92502 -2.92502,2.92496 -2.92504,2.92504 -2.92496,3.15003 -3.15001,2.92495 -2.92496,3.15002 -2.92504,3.15003 -2.92495,3.14995 -3.15003,3.37501 -2.92503,3.15002 -2.92497,3.37502 -2.92502,3.37495 -3.14995,3.37501 -2.92504,3.37501 -2.92502,3.6 -2.92497,3.37502 -3.15002,3.6 -2.92496,3.60002 -2.92503,3.59992 -2.92504,3.60001 -2.92496,3.6 -2.92502,3.60002 -2.92497,3.82498 -2.70003,3.60002 -2.92497,3.825 -2.92502,3.6 -2.69998,3.825 -2.92502,3.825 -2.69998,3.82502 -2.70003,3.59998 -2.69998,3.825 -2.70004,3.82502 -2.69996,3.825 -2.69997,3.825 -2.47505,3.825 -2.69997,3.82499 -2.47497,3.825 -2.47505,3.825 -2.47498,3.825 -2.47501,3.82499 -2.47501,3.60001 -2.24999,3.825 -2.47501,3.82499 -2.24999,3.825 -2.24999,3.60001 -2.02502,3.82499 -2.24999,3.60001 -2.025,3.825 -2.24999,3.6 -2.02502,3.60001 -1.8,3.6 -2.025,3.59998 -1.8,3.6 -1.8,3.60001 -1.79998,3.37501 -1.8,3.37498 -1.57501,3.6 -1.8,3.37502 -1.34999,3.37498 -1.57501,3.15002 -1.57501,3.37498 -1.34998,3.15002 -1.35002,3.14999 -1.34999,3.14999 -1.12499,3.15002 -1.12502,3.14999 -1.125,2.92499 -1.12499,2.925 -1.125,2.92502"
         id="path7727"
         style="fill:none;stroke:#000000;stroke-width:1.80000007;stroke-linecap:round;stroke-linejoin:round;stroke-miterlimit:10;stroke-opacity:1;stroke-dasharray:none" />
      <path
         d="m -610.32586,809.51129 -1.12504,-0.67498 -0.90004,-1.125 -0.89996,-0.9 -0.90004,-1.12502 -0.67497,-1.12499 -0.89996,-1.125 -0.67505,-1.34999 -0.44998,-1.35001 -0.67497,-1.57501 -0.45007,-1.57498 -0.44997,-1.57501 -0.44999,-1.57501"
         id="path7729"
         style="fill:none;stroke:#000000;stroke-width:1.80000007;stroke-linecap:round;stroke-linejoin:round;stroke-miterlimit:10;stroke-opacity:1;stroke-dasharray:none" />
      <path
         d="m -678.05089,945.63631 0.9,0.44999 0.9,0.45001 0.9,0.44999 1.12499,0.45001 1.125,0.225 1.12499,0 1.35002,0.22499 1.12499,0 1.34999,-0.22499 1.57501,-0.225 1.34999,-0.22502 1.57501,-0.22499 1.575,-0.44999 1.57501,-0.45001 1.57498,-0.44999 1.57501,-0.67501 1.80001,-0.67501 1.8,-0.9 1.8,-0.9 2.025,-0.9 1.8,-0.9 2.02499,-1.12499 2.025,-1.125 2.02499,-1.34999 2.025,-1.35001 2.02502,-1.34999 2.24999,-1.35002 2.025,-1.57498 2.24999,-1.57501 2.25001,-1.8 2.25003,-1.57501 2.47497,-1.8 2.24999,-2.02499 2.24998,-1.80001 2.47505,-2.02499 2.47498,-2.025 2.24999,-2.24999 2.47505,-2.02502 2.47497,-2.24999 2.47498,-2.47501 2.70003,-2.24999 2.47498,-2.47501 2.47499,-2.47498 2.47505,-2.47501 2.69996,-2.47501 2.47497,-2.7 2.70004,-2.69998 2.47499,-2.7 2.70004,-2.70001 2.47497,-2.92499 2.69996,-2.70001 2.47505,-2.92499 2.69998,-2.925 2.47497,-2.92502 2.70004,-3.14999 2.47498,-2.925 2.70005,-3.14999 2.47497,-3.15002 2.69996,-2.92499 2.47505,-3.14999 2.69998,-3.37502 2.47497,-3.14999 2.47505,-3.15001 2.47498,-3.14999 2.47497,-3.37499 2.47505,-3.37501 2.47498,-3.14999 2.47497,-3.37501 2.47505,-3.37501 2.24999,-3.14999 2.47498,-3.37501 2.24998,-3.37498 2.25007,-3.37502 2.24997,-3.37498 2.24999,-3.37501 2.24999,-3.14999 2.24999,-3.37501 2.02498,-3.37501 2.02508,-3.37499 2.24999,-3.15001 2.02498,-3.37499 2.025,-3.37501 1.8,-3.14999 2.02499,-3.37501 1.80001,-3.14999 1.8,-3.14999 1.8,-3.15002 1.8,-3.37498 1.57502,-2.925 1.57493,-3.15001 1.57502,-3.14999 1.57501,-3.15002 1.57501,-2.925"
         id="path7731"
         style="fill:none;stroke:#000000;stroke-width:1.80000007;stroke-linecap:round;stroke-linejoin:round;stroke-miterlimit:10;stroke-opacity:1;stroke-dasharray:none" />
      <path
         d="m -618.20092,793.53629 0.45006,1.8 0.22498,1.57501 0.44998,1.57501 0.44999,1.57498 0.67505,1.35002 0.67497,1.57498 0.67498,1.12502 0.67503,1.34999 0.89998,1.12499 0.90004,1.12502 0.89996,0.89998 0.90004,0.9 1.12495,0.9 1.12503,0.67501 1.12495,0.675 1.35003,0.67501 1.12502,0.44999 1.34995,0.45001 1.35003,0.44999 1.575,0.22499 1.57501,0.225 1.57501,0.22502 1.57494,0 1.57501,0 1.80002,0 1.8,-0.22502 1.8,-0.225 1.8,-0.44998 2.025,-0.45002 2.02499,-0.44998 2.025,-0.67501 2.02498,-0.67501 2.25007,-0.67498 2.025,-0.67501 2.24997,-0.9 2.24999,-1.12499 2.47497,-0.9 2.25007,-1.125 2.47497,-1.35001 2.47498,-1.125 2.47505,-1.34999 2.47497,-1.57501 2.47499,-1.35001 2.70004,-1.57498 2.69996,-1.8 2.70005,-1.57501 2.69996,-1.80001 2.69996,-2.02499 2.92504,-1.8 2.69996,-2.025 2.92504,-2.02499 2.92504,-2.25002 2.92495,-2.24999 2.92504,-2.24999 2.92496,-2.25002 2.92502,-2.47498 3.14995,-2.47501 2.92504,-2.47501 3.15003,-2.7 3.14995,-2.69998 3.15002,-2.7 3.15001,-2.7 3.14995,-2.925 3.15003,-2.925 3.15002,-2.92502 3.14995,-3.14999 3.37502,-2.925 -1.57502,2.925 -1.34993,3.14999 -1.57502,2.92502 -1.57501,3.14999 -1.8,3.14999 -1.57501,3.15002 -1.80001,3.14999 -1.8,3.14999 -1.8,3.37501 -2.025,3.14999 -1.8,3.37501 -2.02499,3.37499 -2.025,3.15001 -2.02499,3.37499 -2.025,3.37501 -2.24999,3.37501 -2.02499,3.37498 -2.24998,3.15002 -2.25007,3.37498 -2.24998,3.37502 -2.24999,3.37498 -2.24997,3.37501 -2.47505,3.37501 -2.24999,3.37498 -2.47498,3.37502 -2.47497,3.37498 -2.47505,3.37501 -2.47499,3.14999 -2.47497,3.37501 -2.47505,3.14999 -2.47498,3.37501 -2.47497,3.14999 -2.70004,3.37501 -2.47498,3.14999 -2.47497,3.15002 -2.70005,3.14999 -2.69996,3.14999 -2.47505,2.925 -2.69998,3.15002 -2.47497,2.92499 -2.70004,3.14999 -2.69996,2.925 -2.47505,2.7 -2.69998,2.925 -2.47497,2.92502 -2.70004,2.69998 -2.69998,2.7 -2.47505,2.70001 -2.69996,2.7 -2.47497,2.47501 -2.70004,2.47498 -2.47499,2.47501 -2.47497,2.47501 -2.47505,2.24999 -2.47498,2.24999 -2.47497,2.25002 -2.47505,2.24998 -2.47498,2.025 -2.47497,2.25002 -2.47505,1.8 -2.24999,2.02499 -2.24999,1.80001 -2.47497,1.8 -2.25003,1.8 -2.25001,1.57498 -2.24999,1.57501 -2.025,1.57501 -2.24999,1.34999 -2.02502,1.35001 -2.025,1.34999 -2.02499,1.125 -2.025,1.12499 -2.02499,1.12502 -1.8,0.9 -2.025,0.89998 -1.8,0.9 -1.8,0.9 -1.57501,0.67501 -1.80001,0.45001 -1.57498,0.44999 -1.57501,0.45001 -1.575,0.44999 -1.34999,0.22499 -1.57501,0.22502 -1.34999,0.225 -1.35001,0 -1.125,0 -1.34999,-0.225 -1.12502,-0.22502 -1.12499,-0.22499 -0.9,-0.44999 -1.125,-0.45001 -0.9,-0.44999 -0.9,-0.67501 -0.67501,-0.675 -0.67498,-0.67501 -0.9,-0.9 -0.45001,-0.89998 -0.67501,-0.9 -0.44999,-1.12502 -0.45001,-1.12499 -0.44999,-1.125 -0.22499,-1.34999 -0.225,-1.35001 -0.22502,-1.57501 -0.22499,-1.34999 0,-1.57501 0,-1.8 0,-1.57498 0.22499,-1.8 0,-2.025 0.22502,-1.8 0.44999,-2.025 0.22499,-2.02502 0.45002,-2.025 0.67498,-2.24998 0.45001,-2.25002 0.67501,-2.24999 0.67498,-2.47501 0.67501,-2.24999 0.67501,-2.47501 0.9,-2.7 0.9,-2.47498 1.12499,-2.70001 0.9,-2.7 1.125,-2.7 1.12499,-2.70001 1.125,-2.92499 1.35001,-2.70001 1.34999,-2.92499 1.35002,-2.925 1.34998,-2.925 1.35002,-3.14999 1.57498,-2.92502 1.57501,-3.14999 1.57501,-3.14999 1.8,-3.15002 1.57498,-3.14999 1.8,-3.14999 1.80001,-3.15002 1.8,-3.37498 2.02499,-3.15002 1.80001,-3.37498 2.02499,-3.37501 2.025,-3.14999 2.02502,-3.37501 2.24999,-3.37499 2.02499,-3.37501 2.25002,-3.37501 2.025,-3.37498 2.24999,-3.15002 2.25001,-3.37498 2.47501,-3.37502 2.24999,-3.37498 2.24999,-3.37501 2.47497,-3.37501"
         id="path7733"
         style="fill:none;stroke:#000000;stroke-width:1.80000007;stroke-linecap:round;stroke-linejoin:round;stroke-miterlimit:10;stroke-opacity:1;stroke-dasharray:none" />
      <path
         d="m -522.57592,826.8363 7.65,16.42499 -63.44994,105.52501"
         id="path7735"
         style="fill:none;stroke:#000000;stroke-width:1.80000007;stroke-linecap:round;stroke-linejoin:round;stroke-miterlimit:10;stroke-opacity:1;stroke-dasharray:none" />
      <path
         d="m -684.3509,887.13629 0.9,-2.92499 1.12499,-2.925 1.125,-2.925 1.12502,-3.14999 1.34999,-2.92502 1.12499,-3.14999 1.35002,-3.37501 1.57498,-3.14999 1.35001,-3.37501 1.57501,-3.14999 1.57498,-3.37499 1.57501,-3.37501 1.57501,-3.6 1.79998,-3.37501 1.8,-3.59998 1.8,-3.37501 2.025,-3.60001 1.8,-3.6 2.02502,-3.59998 2.025,-3.6 2.02499,-3.60001 2.025,-3.82499 2.24999,-3.60001 2.25001,-3.825 2.24999,-3.82499 2.25002,-3.60001 2.24999,-3.825 2.47501,-3.82499 2.47498,-3.825 2.25002,-3.825 2.47498,-3.6 2.7,-3.825 2.47497,-3.825 2.47505,-3.825 2.69998,-3.82502 2.70004,-3.825 2.47497,-3.825 2.69998,-3.825 2.92502,-3.82499 2.69998,-3.825 2.70003,-3.825 2.92497,-3.6 2.70003,-3.82496 2.92497,-3.82508 2.70003,-3.59992 2.92497,-3.825 2.92502,-3.60002 2.92504,-3.82498 2.92496,-3.60002 2.92502,-3.6 2.92497,-3.60001 2.92502,-3.6 2.92496,-3.37501 3.15003,-3.60001 2.92504,-3.37502 2.92495,-3.60001 3.15002,-3.37494 2.92496,-3.37501 2.92503,-3.15002 2.92496,-3.37502 3.15003,-3.14995 2.92503,-3.37501 2.92495,-3.15002 3.15003,-3.14995 2.92504,-2.92504 2.92496,-3.15003 2.92502,-2.92495 2.92497,-2.92503 2.92502,-2.69997 2.92496,-2.92503 2.92504,-2.69997 2.92495,-2.70005 2.92504,-2.69996 2.69996,-2.47497 2.92504,-2.47505 2.92504,-2.47498 2.69996,-2.47497 2.69996,-2.25007 2.92504,-2.24998 2.69996,-2.24999 2.70005,-2.24999 2.47498,-2.02499 2.70003,-2.025 2.69998,-1.8 2.47497,-2.02498 2.47505,-1.80002 2.69997,-1.57501 2.24998,-1.8 2.47505,-1.57501 2.47498,-1.35001 2.24999,-1.57502 2.47505,-1.34995 2.24998,-1.12502 2.24998,-1.35003 2.24999,-1.12496 2.025,-0.90004 2.02498,-1.12495 2.24999,-0.90003 2.02508,-0.67498 1.8,-0.67505 2.02498,-0.67497 1.80002,-0.67498 1.8,-0.44997 1.79992,-0.45007 1.8,-0.22498 1.57501,-0.44999 1.57502,0 1.57501,-0.22499 1.57501,0 1.35003,0 1.57493,0.22499 1.35003,0.225 1.12502,0.22499 1.34995,0.44998 1.12503,0.45005 1.12502,0.67498 0.89998,0.44999 1.12502,0.67503 0.89997,0.89998 0.90003,0.90004 0.89997,0.89996 0.67497,0.90004 0.67505,1.12495 0.67498,1.35002 0.44997,1.12495 0.45006,1.35003 0.44998,1.35002 0.44999,1.57501 0.44998,1.57502 0.22507,1.57493 0,1.57502 0.22498,1.8 0,1.8 0,2.025 0,1.8 0,2.24998 -0.22498,2.02499 -0.22507,2.25006 -0.44998,2.24999 -0.22499,2.24999 -0.44999,2.24997 -0.67505,2.47505 -0.44997,2.47498 -0.67498,2.69997 -0.67505,2.47505 -0.67497,2.69997 -0.89997,2.70005 -0.90003,2.92495 -0.89997,2.70005 -0.90003,2.92495 -1.12497,2.92503 -1.12502,2.92497 -1.12503,3.15001 -1.12496,3.15002 -1.35001,3.14995 -1.35003,3.15003 -1.34995,3.15002 -1.57501,3.37494 -1.35001,3.15003 -1.57501,3.37501 -1.57502,3.37502 -1.80001,3.37502 -1.57494,3.59992 -1.8,3.37503 -1.8,3.6 -2.025,3.60001 -1.8,3.6 -2.02498,3.6 -2.02508,3.60001 -2.02499,3.6 -2.025,3.60001 -2.24998,3.825 -2.24999,3.6 -2.24998,3.825 -2.24998,3.82497 -2.25007,3.6 -2.24998,3.825 -2.47498,3.825 -2.47505,3.82502 -2.47497,3.825 -2.47498,3.825 -2.47497,3.825 -2.70004,3.82499 -2.47499,3.825 -2.70004,3.825 -2.69996,3.825 -2.70005,3.825 -2.69996,3.82499 -2.69996,3.60001 -2.70005,3.825 -2.92495,3.82499 -2.70005,3.825 -2.92495,3.60001 -2.70005,3.82499 -2.92495,3.60001 -2.92504,3.825 -2.92504,3.6 -2.92495,3.6 -2.92503,3.825"
         id="path7737"
         style="fill:none;stroke:#000000;stroke-width:1.80000007;stroke-linecap:round;stroke-linejoin:round;stroke-miterlimit:10;stroke-opacity:1;stroke-dasharray:none" />
      <path
         d="m -722.60091,920.88629 38.25001,-33.75 -1.125,-0.67498"
         id="path7739"
         style="fill:none;stroke:#000000;stroke-width:1.80000007;stroke-linecap:round;stroke-linejoin:round;stroke-miterlimit:10;stroke-opacity:1;stroke-dasharray:none" />
      <path
         d="m -751.17589,879.93631 -14.175,18.9 -24.75002,125.32499"
         id="path7741"
         style="fill:none;stroke:#000000;stroke-width:1.80000007;stroke-linecap:round;stroke-linejoin:round;stroke-miterlimit:10;stroke-opacity:1;stroke-dasharray:none" />
      <path
         d="m -588.9509,859.91129 -2.02499,3.825 -2.025,3.825 -2.24997,3.825 -2.02508,3.82502 -2.24998,3.59998 -2.02499,3.825 -2.24999,3.37501 -2.24999,3.6 -2.02498,3.60001 -2.24999,3.37498 -2.25006,3.15002 -2.24999,3.37498 -2.24999,3.15002 -2.24997,3.14999 -2.24999,3.14999 -2.25006,2.925 -2.24999,2.92502 -2.24999,2.925 -2.25001,2.7 -2.24999,2.69998 -2.24999,2.7 -2.25002,2.47501 -2.24999,2.47501 -2.25001,2.47498"
         id="path7743"
         style="fill:none;stroke:#000000;stroke-width:1.80000007;stroke-linecap:round;stroke-linejoin:round;stroke-miterlimit:10;stroke-opacity:1;stroke-dasharray:none" />
      <path
         d="m -788.97591,1024.6113 24.75001,-125.32501 -1.12499,-0.44998"
         id="path7745"
         style="fill:none;stroke:#000000;stroke-width:1.80000007;stroke-linecap:round;stroke-linejoin:round;stroke-miterlimit:10;stroke-opacity:1;stroke-dasharray:none" />
      <path
         d="m -764.2259,899.28629 14.175,-18.89999 -1.12499,-0.44999"
         id="path7747"
         style="fill:none;stroke:#000000;stroke-width:1.80000007;stroke-linecap:round;stroke-linejoin:round;stroke-miterlimit:10;stroke-opacity:1;stroke-dasharray:none" />
      <path
         d="m -750.0509,880.3863 0.22499,3.6 0.225,3.37499 0.45001,3.6 0.22499,3.37501 0.45002,3.14999 0.44999,3.37501 0.675,3.14999 0.44999,3.15002 0.45001,3.14999 0.67501,2.925 0.67498,2.92499 0.67501,2.925 0.67501,2.7 0.9,2.925 0.67498,2.47501 0.9,2.7 0.9,2.47499 0.9,2.47501 1.125,2.25001 0.9,2.47499 1.12502,2.02499"
         id="path7749"
         style="fill:none;stroke:#000000;stroke-width:1.80000007;stroke-linecap:round;stroke-linejoin:round;stroke-miterlimit:10;stroke-opacity:1;stroke-dasharray:none" />
      <path
         d="m -638.22591,934.6113 2.25002,-2.47501 2.24999,-2.7 2.24999,-2.47498 2.25001,-2.70001 2.25003,-2.7 2.24998,-2.925 2.24999,-2.92499 2.24999,-2.925 2.02499,-3.15002 2.25006,-2.92499 2.24999,-3.14999 2.24997,-3.37501 2.24999,-3.14999 2.025,-3.37502 2.24999,-3.6 2.02498,-3.37498 2.25007,-3.60001 2.24998,-3.6 2.02499,-3.60001 2.025,-3.82499 2.24999,-3.60001 2.02499,-3.825 2.025,-3.82499 2.02498,-4.05"
         id="path7751"
         style="fill:none;stroke:#000000;stroke-width:1.80000007;stroke-linecap:round;stroke-linejoin:round;stroke-miterlimit:10;stroke-opacity:1;stroke-dasharray:none" />
      <path
         d="m -557.0009,824.1363 -8.32496,41.62499"
         id="path7753"
         style="fill:none;stroke:#000000;stroke-width:1.80000007;stroke-linecap:round;stroke-linejoin:round;stroke-miterlimit:10;stroke-opacity:1;stroke-dasharray:none" />
      <path
         d="m -610.32586,809.51129 0.89996,0.9"
         id="path7755"
         style="fill:none;stroke:#000000;stroke-width:1.80000007;stroke-linecap:round;stroke-linejoin:round;stroke-miterlimit:10;stroke-opacity:1;stroke-dasharray:none" />
      <path
         d="m -416.1509,589.23629 0.90004,0.67504"
         id="path7757"
         style="fill:none;stroke:#000000;stroke-width:1.80000007;stroke-linecap:round;stroke-linejoin:round;stroke-miterlimit:10;stroke-opacity:1;stroke-dasharray:none" />
      <path
         d="m -800.45091,968.81129 1.35002,0 1.34999,0 1.35001,0.22502 1.57498,0 1.35002,0 1.57498,0"
         id="path7759"
         style="fill:none;stroke:#000000;stroke-width:1.80000007;stroke-linecap:round;stroke-linejoin:round;stroke-miterlimit:10;stroke-opacity:1;stroke-dasharray:none" />
      <path
         d="m -788.30091,964.31131 -1.34998,-0.67501 -1.125,-0.675 -1.12502,-0.67501 -1.12499,-0.67498 -1.125,-0.9 -1.12499,-0.67501 -1.125,-0.67501 -0.9,-0.9 -1.12502,-0.67498 -0.9,-0.67501 -0.9,-0.9 -0.89998,-0.67501 -0.9,-0.675 -0.9,-0.89998 -0.67501,-0.675 -0.675,-0.67501 -0.67501,-0.67501 -0.67498,-0.67498 -0.45002,-0.67501 -0.44998,-0.67501 -0.45002,-0.675 -0.22499,-0.44999 -0.22499,-0.67501 -0.225,-0.44998 -0.22502,-0.45002 0,-0.44999 0,-0.45001 0,-0.44999 0,-0.45001 0.22502,-0.22499 0.225,-0.225 0.44998,-0.22499 0.22502,-0.22502 0.44999,-0.225 0.67501,-0.22499 0.44998,0 0.67501,0 0.67501,0 0.67498,0 0.9,0.22499 0.9,0 0.67501,0.225 1.12499,0.22502 0.90001,0.22499 0.9,0.225 1.12499,0.45001 1.12502,0.22499 1.125,0.44999 1.12499,0.45001 1.125,0.44999 1.12499,0.67501"
         id="path7761"
         style="fill:none;stroke:#000000;stroke-width:1.80000007;stroke-linecap:round;stroke-linejoin:round;stroke-miterlimit:10;stroke-opacity:1;stroke-dasharray:none" />
      <path
         d="m -791.00091,947.8863 2.7,16.42501"
         id="path7763"
         style="fill:none;stroke:#000000;stroke-width:1.80000007;stroke-linecap:round;stroke-linejoin:round;stroke-miterlimit:10;stroke-opacity:1;stroke-dasharray:none" />
      <path
         d="m -791.90091,969.03631 0.22502,-0.22502 0.44999,-0.44999 0.45001,-0.22499 0.44999,-0.67501 0.45001,-0.45001 0.44999,-0.67498 0.44999,-0.67501 0.22502,-0.67501 0.44998,-0.67498"
         id="path7765"
         style="fill:none;stroke:#000000;stroke-width:1.80000007;stroke-linecap:round;stroke-linejoin:round;stroke-miterlimit:10;stroke-opacity:1;stroke-dasharray:none" />
      <path
         d="m -875.37591,979.8363 0.9,0 0.9,0 0.67501,0 0.9,-0.225 0.9,-0.45001 0.9,-0.22499 0.67501,-0.44999 0.9,-0.67501 0.89998,-0.67501 0.9,-0.67498 0.9,-0.9 0.67501,-0.9 0.9,-1.12502 0.9,-0.9 0.67501,-1.34999 0.9,-1.12499 0.67498,-1.35002 0.67501,-1.34999 0.9,-1.57501 0.675,-1.34998 0.67501,-1.57501 0.44999,-1.57501 0.67501,-1.79998 0.67498,-1.57501 0.45001,-1.8 0.44999,-1.8 0.67501,-1.8 0.22499,-1.8 0.45001,-1.80001 0.44999,-1.8 0.22502,-1.8 0.22499,-1.8 0.225,-2.025 0.22499,-1.8 0.22502,-1.8 0,-1.79998 0,-1.8 0,-1.8 0,-1.57501 0,-1.8 -0.22502,-1.57501 -0.22499,-1.57498 -0.225,-1.57501 -0.22499,-1.57501 -0.22502,-1.34999 -0.44999,-1.34999 -0.22499,-1.35001 -0.45001,-1.34999 -0.44999,-1.12502 -0.45002,-1.125 -0.675,-0.9 -0.44999,-0.9 -0.67501,-0.9 -0.67498,-0.67498 -0.67501,-0.67501 -0.675,-0.67501 -0.67501,-0.44998 -0.67498,-0.45002 -0.9,-0.22499 -0.67501,-0.22499"
         id="path7767"
         style="fill:none;stroke:#000000;stroke-width:1.80000007;stroke-linecap:round;stroke-linejoin:round;stroke-miterlimit:10;stroke-opacity:1;stroke-dasharray:none" />
      <path
         d="m -939.5009,988.38629 -226.125,-40.72498"
         id="path7769"
         style="fill:none;stroke:#000000;stroke-width:1.80000007;stroke-linecap:round;stroke-linejoin:round;stroke-miterlimit:10;stroke-opacity:1;stroke-dasharray:none" />
      <path
         d="M -919.92589,878.81129 -1146.0509,838.3113"
         id="path7771"
         style="fill:none;stroke:#000000;stroke-width:1.80000007;stroke-linecap:round;stroke-linejoin:round;stroke-miterlimit:10;stroke-opacity:1;stroke-dasharray:none" />
      <path
         d="m -800.45091,968.81129 -58.49999,-4.725"
         id="path7773"
         style="fill:none;stroke:#000000;stroke-width:1.80000007;stroke-linecap:round;stroke-linejoin:round;stroke-miterlimit:10;stroke-opacity:1;stroke-dasharray:none" />
      <path
         d="m -798.42591,944.9613 -54.22498,-15.29999"
         id="path7775"
         style="fill:none;stroke:#000000;stroke-width:1.80000007;stroke-linecap:round;stroke-linejoin:round;stroke-miterlimit:10;stroke-opacity:1;stroke-dasharray:none" />
      <path
         d="m -875.37591,979.8363 -39.375,-7.20001"
         id="path7777"
         style="fill:none;stroke:#000000;stroke-width:1.80000007;stroke-linecap:round;stroke-linejoin:round;stroke-miterlimit:10;stroke-opacity:1;stroke-dasharray:none" />
      <path
         d="m -862.5509,909.18631 -39.375,-6.97502"
         id="path7779"
         style="fill:none;stroke:#000000;stroke-width:1.80000007;stroke-linecap:round;stroke-linejoin:round;stroke-miterlimit:10;stroke-opacity:1;stroke-dasharray:none" />
      <path
         d="m -1162.0259,947.66131 1.125,-0.225 1.125,-0.22502 0.9,-0.44999 1.125,-0.675 1.125,-0.44999 1.125,-0.9 1.125,-0.67501 0.9,-0.9 1.125,-1.12499 1.125,-0.90001 0.9,-1.12499 1.125,-1.35002 1.125,-1.34998 0.9,-1.35002 1.125,-1.57498 0.9,-1.57501 0.9,-1.57501 0.9,-1.57498 0.9,-1.8 0.9,-1.8 0.9,-2.025 0.9,-1.8 0.9,-2.025 0.675,-2.02502 0.9,-2.025 0.675,-2.24998 0.675,-2.025 0.675,-2.25002 0.45,-2.24999 0.675,-2.25001 0.45,-2.24999 0.675,-2.24999 0.45,-2.25002 0.225,-2.47498 0.45,-2.25002 0.45,-2.24998 0.225,-2.25002 0.225,-2.47498 0.225,-2.25002 0,-2.24999 0.225,-2.24999 0,-2.25001 0,-2.24999 0,-2.025 0,-2.25002 -0.225,-2.02499 0,-2.24999 -0.225,-1.8 -0.225,-2.025 -0.45,-2.02502 -0.225,-1.8 -0.45,-1.79998 -0.45,-1.8 -0.45,-1.57501 -0.45,-1.57501 -0.675,-1.57498 -0.45,-1.35001 -0.675,-1.57501 -0.675,-1.125 -0.675,-1.34999 -0.675,-1.12499 -0.675,-0.9 -0.9,-1.12502 -0.9,-0.67498 -0.675,-0.9 -0.9,-0.67501 -0.9,-0.44999"
         id="path7781"
         style="fill:none;stroke:#000000;stroke-width:1.35000002;stroke-linecap:round;stroke-linejoin:round;stroke-miterlimit:10;stroke-opacity:1;stroke-dasharray:none" />
      <path
         d="m -1155.7259,931.23629 -0.9,1.125 -0.9,1.12502 -1.125,1.12499 -0.9,0.9 -1.125,0.90001 -0.9,0.675 -0.9,0.67498 -1.125,0.67501 -0.9,0.44999 -1.125,0.45001 -0.9,0.225 -0.9,0.22499 -1.125,0 -0.9,0 -0.9,0 -0.9,-0.22499 -0.9,-0.225 -0.9,-0.45001 -0.9,-0.44999 -0.9,-0.45001 -0.675,-0.67498 -0.9,-0.67501 -0.675,-0.9 -0.675,-0.9 -0.675,-1.125 -0.675,-1.12499 -0.675,-1.125 -0.45,-1.12502 -0.675,-1.34999 -0.45,-1.57501 -0.45,-1.34998 -0.45,-1.57501 -0.45,-1.57501 -0.45,-1.8 -0.225,-1.57498 -0.225,-1.80001 -0.225,-2.02499 -0.225,-1.8 0,-2.025 -0.225,-1.8 0,-2.025 0,-2.02502 0,-2.24999 0.225,-2.025 0,-2.02499 0.225,-2.25002 0.225,-2.02499 0.225,-2.24999 0.225,-2.25002 0.45,-2.02499 0.45,-2.24999 0.45,-2.025 0.45,-2.25002 0.45,-2.02499 0.45,-2.025 0.675,-2.02499 0.675,-2.025 0.675,-2.02502 0.675,-2.025 0.675,-1.8 0.675,-2.02499 0.9,-1.80001 0.675,-1.57498 0.9,-1.8 0.9,-1.57501 0.9,-1.57501 0.9,-1.57498 0.9,-1.35001 0.9,-1.34999 0.9,-1.35002 1.125,-1.12499 0.9,-1.125 0.9,-1.12499 1.125,-0.9 0.9,-0.9 1.125,-0.67501 0.9,-0.67501 0.9,-0.67498 1.125,-0.45001 0.9,-0.44999 1.125,-0.22502 0.9,-0.22499 0.9,0 0.9,0 1.125,0 0.9,0.22499 0.9,0.22502 0.9,0.44999 0.675,0.45001 0.9,0.44999 0.9,0.67501 0.675,0.675 0.9,0.89998 0.675,0.9 0.675,1.12502 0.675,1.12499 0.45,1.125 0.675,1.12499 0.675,1.35002 0.45,1.57498 0.45,1.35002 0.45,1.57498 0.45,1.57501 0.225,1.8 0.45,1.57501 0.225,1.8 0.225,1.8 0,2.025 0.225,1.8 0,2.02499 0.225,2.025 0,2.025 -0.225,2.25001 0,2.025 -0.225,2.02499 0,2.24999 -0.225,2.025 -0.225,2.25001 -0.45,2.025 -0.225,2.24999 -0.45,2.25002 -0.45,2.02499 -0.45,2.025 -0.45,2.25001 -0.675,2.025 -0.45,2.02499 -0.675,2.025 -0.675,2.025 -0.675,2.02499 -0.675,1.8 -0.9,1.80001 -0.675,1.8 -0.9,1.8 -0.9,1.8 -0.675,1.57501 -0.9,1.57498 -0.9,1.57501 -0.9,1.34999 -1.125,1.35001 -0.9,1.34999"
         id="path7783"
         style="fill:none;stroke:#000000;stroke-width:1.35000002;stroke-linecap:round;stroke-linejoin:round;stroke-miterlimit:10;stroke-opacity:1;stroke-dasharray:none" />
      <path
         d="m -1146.0509,838.3113 -0.9,-0.225 -0.9,0 -0.9,0 -0.9,0 -0.9,0 -0.9,0 -0.9,0.225 -0.9,0.22499 -0.9,0.22502 -0.675,0.22499 -0.9,0.44999 -0.9,0.22502 -0.675,0.44999 -0.9,0.45001 -0.675,0.44999 -0.9,0.45001 -0.675,0.67498 -0.675,0.45002 -0.675,0.67498 -0.675,0.45001 -0.675,0.67501 -0.675,0.67498 -0.675,0.67501 -0.675,0.67501 -0.675,0.675 -0.675,0.67498 -0.675,0.9 -0.45,0.67501 -0.675,0.9 -0.675,0.67501 -0.45,0.9 -0.675,0.9 -0.675,0.89998 -0.45,0.9 -0.45,0.9 -0.675,0.9 -0.45,0.9 -0.675,1.12502 -0.45,0.89998 -0.45,0.9 -0.45,1.12502 -0.45,1.12499 -0.675,0.90001 -0.45,1.12499 -0.45,1.12499 -0.45,1.125 -0.225,1.12502 -0.45,1.125 -0.45,1.12499 -0.45,1.12499 -0.45,1.125 -0.225,1.12502 -0.45,1.125 -0.45,1.34998 -0.225,1.125 -0.45,1.12502 -0.225,1.34999 -0.225,1.12499 -0.45,1.35002 -0.225,1.12499 -0.225,1.125 -0.225,1.35001 -0.225,1.34999 -0.225,1.12499 -0.225,1.35002 -0.225,1.12499 -0.225,1.34999 -0.225,1.125 -0.225,1.35001 0,1.125 -0.225,1.35001 0,1.125 -0.225,1.34998 0,1.35002 -0.225,1.12499 0,1.125 0,1.34999 0,1.12502 0,1.34999 -0.225,1.12499 0,1.12502 0.225,1.34999 0,1.125 0,1.12499 0,1.12502 0.225,1.34999 0,1.12499 0,1.125 0.225,1.12502 0.225,1.125 0,0.9 0.225,1.12499 0.225,1.125 0.225,1.12499 0.225,0.9 0.225,1.12502 0.225,0.89998 0.225,1.12502 0.225,0.9 0.225,0.9 0.45,0.9 0.225,1.125 0.45,0.9 0.225,0.9 0.45,0.67498 0.45,0.9 0.225,0.9 0.45,0.9 0.45,0.67501 0.45,0.9 0.675,0.67501 0.45,0.67498 0.45,0.9 0.675,0.67501 0.45,0.67501 0.675,0.44998 0.675,0.67501 0.675,0.67501 0.675,0.44998 0.675,0.67501 0.9,0.44999 0.675,0.45001 0.9,0.44999 0.675,0.22502 0.9,0.44999 0.9,0.22499 0.9,0.22502 0.9,0.225"
         id="path7785"
         style="fill:none;stroke:#000000;stroke-width:1.80000007;stroke-linecap:round;stroke-linejoin:round;stroke-miterlimit:10;stroke-opacity:1;stroke-dasharray:none" />
      <path
         d="m -916.32589,880.16131 0.9,0.675 0.9,0.67498 0.9,0.67501 0.67498,0.9 0.9,0.9 0.67501,1.125 0.9,1.12499 0.67501,1.125 0.67498,1.35001 0.45002,1.34999 0.675,1.57501 0.44999,1.34999 0.67501,1.57501 0.44998,1.8 0.225,1.8 0.45001,1.8 0.44999,1.8 0.22502,1.80001 0.22499,2.02499 0.225,2.025 0.22499,2.02499 0,2.25002 0.22502,2.025 0,2.24998 0,2.25002 -0.22502,2.24999 0,2.24999 -0.22499,2.25002 -0.225,2.24998 -0.22499,2.25002 -0.22502,2.24999 -0.44999,2.47501 -0.22499,2.24999 -0.45002,2.24999 -0.44998,2.47501 -0.45002,2.24999 -0.67498,2.25001 -0.45001,2.24999 -0.67501,2.25002 -0.67498,2.02499 -0.67501,2.24999 -0.675,2.025 -0.67501,2.25002 -0.9,2.02499 -0.89998,1.8 -0.675,2.025 -0.90001,1.8 -0.9,2.025 -0.9,1.57501 -0.9,1.8 -1.12499,1.57498 -0.9,1.57501 -0.90001,1.57501 -1.12499,1.34998 -1.12502,1.35002 -0.9,1.12499 -1.125,1.125 -1.12499,1.12499 -0.9,0.9 -1.125,0.90001 -1.12499,0.9 -1.125,0.675 -0.9,0.67501 -1.12502,0.44999 -1.12499,0.45001 -1.125,0.44999 -0.9,0.22499"
         id="path7787"
         style="fill:none;stroke:#000000;stroke-width:1.35000002;stroke-linecap:round;stroke-linejoin:round;stroke-miterlimit:10;stroke-opacity:1;stroke-dasharray:none" />
      <path
         d="m -939.5009,988.38629 0.9,0 0.9,0.225 0.90001,0 0.9,0 0.9,-0.225 0.9,0 0.9,-0.22499 0.9,-0.22499 0.9,-0.225 0.67498,-0.22502 0.9,-0.44998 0.9,-0.225 0.67501,-0.45001 0.9,-0.44999 0.67501,-0.45001 0.67498,-0.44999 0.9,-0.45001 0.67501,-0.67501 0.67501,-0.44999 0.67498,-0.67501 0.67501,-0.67498 0.675,-0.45001 0.67501,-0.67501 0.67498,-0.67498 0.67501,-0.9 0.67501,-0.67501 0.67498,-0.67501 0.45001,-0.9 0.67501,-0.67498 0.67498,-0.9 0.45001,-0.9 0.67501,-0.67501 0.44999,-0.9 0.67501,-0.9 0.44998,-0.9 0.67501,-1.12499 0.44999,-0.90001 0.45001,-0.9 0.67501,-1.12499 0.44999,-0.9 0.45001,-1.125 0.44999,-0.9 0.45001,-1.12502 0.44999,-1.12499 0.45001,-0.90001 0.44999,-1.12499 0.45001,-1.12499 0.44999,-1.125 0.44999,-1.12502 0.45001,-1.125 0.44999,-1.34998 0.22502,-1.125 0.44999,-1.12502 0.22499,-1.12499 0.45001,-1.34999 0.225,-1.125 0.45001,-1.12502 0.22499,-1.34999 0.44999,-1.12499 0.22502,-1.35002 0.225,-1.12499 0.22499,-1.34999 0.22499,-1.12502 0.22502,-1.34999 0.225,-1.12499 0.22499,-1.35002 0.22499,-1.12499 0.225,-1.34999 0,-1.12502 0.22502,-1.34999 0.22499,-1.34999 0,-1.12502 0.22499,-1.34999 0,-1.12499 0.225,-1.35002 0,-1.12499 0,-1.34999 0,-1.12502 0,-1.125 0,-1.34999 0,-1.12499 0,-1.12502 0,-1.34999 0,-1.12499 0,-1.125 -0.225,-1.12502 0,-1.125 -0.22499,-1.12499 0,-1.12499 -0.22499,-1.125 0,-1.12502 -0.22502,-1.125 -0.225,-1.12499 -0.22499,-0.9 -0.22499,-1.125 -0.225,-0.9 -0.22502,-1.12499 -0.22499,-0.9 -0.22499,-1.125 -0.225,-0.9 -0.45001,-0.9 -0.225,-0.9 -0.45001,-0.9 -0.22499,-0.9 -0.44999,-0.9 -0.45001,-0.9 -0.44999,-0.90001 -0.22502,-0.675 -0.44999,-0.9 -0.67501,-0.67501 -0.44998,-0.9 -0.45002,-0.67498 -0.44998,-0.67501 -0.67501,-0.67501 -0.67501,-0.67498 -0.44999,-0.67501 -0.675,-0.675 -0.67501,-0.44999 -0.67498,-0.67501 -0.67501,-0.45001 -0.9,-0.67498 -0.67501,-0.45002 -0.9,-0.22499 -0.67498,-0.44999 -0.9,-0.45001 -0.9,-0.225 -0.9,-0.22499 -0.9,-0.22502"
         id="path7789"
         style="fill:none;stroke:#000000;stroke-width:1.80000007;stroke-linecap:round;stroke-linejoin:round;stroke-miterlimit:10;stroke-opacity:1;stroke-dasharray:none" />
      <path
         d="m -518.30087,774.86129 -2.92503,4.05002 -2.92504,4.04999 -3.14995,3.82499 -2.92502,3.825 -2.92496,4.05002 -3.15003,3.825 -2.92504,3.825 -3.14995,3.82499 -2.92502,3.825 -3.14995,3.825 -3.15003,3.6 -2.92503,3.825 -3.14995,3.60001 -3.15003,3.82499 -3.15001,3.60001 -3.14995,3.6 -3.15003,3.59998 -2.92503,3.37501 -3.14995,3.60001 -3.15003,3.37498 -3.15002,3.37501 -3.14995,3.37501 -3.15003,3.37498 -3.15001,3.37502 -3.14995,3.14999 -3.15003,3.15001 -2.92503,3.14999 -3.14995,3.14999 -3.15003,3.15002 -2.92502,2.925 -3.14995,2.92499 -3.15003,2.925 -2.92504,2.7 -2.92496,2.925 -3.15001,2.7 -2.925,2.70001 -2.925,2.47498 -2.92499,2.7 -2.925,2.47501 -2.925,2.24999 -2.92499,2.47501 -2.70001,2.24999 -2.92499,2.25002 -2.70001,2.02499 -2.7,2.24999 -2.7,2.025 -2.70001,1.8 -2.7,2.02502 -2.7,1.79998 -2.47499,1.57501 -2.7,1.8 -2.47501,1.57501 -2.47498,1.57498 -2.47501,1.35001 -2.24999,1.34999 -2.47501,1.35002"
         id="path7791"
         style="fill:none;stroke:#000000;stroke-width:1.80000007;stroke-linecap:round;stroke-linejoin:round;stroke-miterlimit:10;stroke-opacity:1;stroke-dasharray:none" />
      <path
         d="m -733.1759,936.41131 -0.67501,-1.35002 -0.44998,-1.57498 -0.225,-1.35002 -0.45001,-1.8 -0.225,-1.57498 -0.22499,-1.8 -0.22502,-1.8 0,-2.025 0,-2.02502 0,-2.025 0.22502,-2.02499 0,-2.24999 0.22499,-2.25002 0.44999,-2.24999 0.22502,-2.47501 0.44999,-2.47498 0.45001,-2.47501 0.67498,-2.47501 0.67501,-2.69998 0.44999,-2.7 0.9,-2.7 0.67501,-2.925 0.9,-2.925 0.9,-2.92502 0.9,-2.925 1.12499,-2.92499 1.125,-3.14999 1.12502,-3.15002 1.125,-3.14999 1.34998,-3.14999 1.35002,-3.37501 1.34999,-3.37499 1.35001,-3.37501 1.57498,-3.37501 1.57501,-3.37498 1.57501,-3.60001 1.57498,-3.6 1.8,-3.37501 1.80001,-3.59998 1.8,-3.825 1.8,-3.6 1.8,-3.60001 2.025,-3.82499 2.02499,-3.825 2.025,-3.825 2.25002,-3.6 2.02499,-4.05002 2.24999,-3.825 2.25002,-3.825 2.24999,-3.825 2.25001,-4.04999 2.47499,-3.82499 2.47501,-4.05002 2.24998,-3.825 2.70001,-4.04999 2.47501,-4.04999 2.47498,-4.05002 2.7,-3.825 2.47501,-4.04999 2.70001,-4.04999 2.7,-4.05002 2.7,-4.04999 2.925,-4.04999 2.7,-3.825 2.925,-4.04999 2.7,-4.04998 2.925,-4.05007 2.925,-3.82499 2.92499,-4.04999 2.925,-4.04999 2.925,-3.825 3.14999,-4.04999 2.92502,-3.825 2.92496,-3.82498 3.15003,-4.04999 2.92502,-3.825 3.14995,-3.82508 3.15003,-3.825 3.15002,-3.82498 2.92497,-3.60002 3.15002,-3.825 3.15003,-3.59992 3.14995,-3.82508 3.15001,-3.59992 3.15002,-3.60001 3.14995,-3.6 3.15003,-3.37503 3.15003,-3.6 3.14995,-3.37501 3.15002,-3.37501 3.15003,-3.37495 3.14995,-3.37502 3.15002,-3.15002 3.15003,-3.37501 3.14995,-3.14995 2.92502,-3.15003 3.15003,-2.92502 3.14995,-3.14995 3.15002,-2.92504 2.92504,-2.92496 3.14995,-2.92503 2.92502,-2.69997 3.14995,-2.70004 2.92504,-2.69996 2.92502,-2.70005 2.92497,-2.47498 2.92503,-2.47497 2.92495,-2.47505 2.92504,-2.47498 2.92496,-2.24999 2.70004,-2.24998 2.92496,-2.25005 2.70004,-2.025 2.69996,-2.02499 2.70005,-2.025 2.69997,-1.8 2.70003,-1.8 2.47498,-1.80001 2.69997,-1.8 2.47505,-1.57502 2.47498,-1.57493 2.47497,-1.35003 2.47505,-1.35001 2.47498,-1.35003 2.24999,-1.34995 2.24998,-1.12502 2.25007,-1.12495 2.24997,-0.90004 2.24999,-0.89997 2.025,-0.90004 2.02499,-0.67498 2.025,-0.90003 2.02498,-0.44998 1.80002,-0.67497 2.02499,-0.45007 1.8,-0.22498 1.80001,-0.44998 1.57501,-0.225 1.8,0 1.57501,-0.22499 1.57502,0 1.57501,0.22499 1.34994,0.225 1.35002,0.22499 1.35003,0.22499 1.34993,0.45006 1.12504,0.44997 1.12503,0.67498 1.12496,0.67505 1.12502,0.67497 0.89997,0.89997 0.90003,0.90003 0.89997,0.89997 0.90003,1.12502 0.67498,1.12504 0.67497,1.12495 0.67505,1.35002 0.44999,1.35003 0.67496,1.34994 0.45007,1.57501 0.22498,1.57501 0.44999,1.57501 0.22499,1.8 0.22499,1.80002 0,1.8 0,2.02498 0,1.80002 0,2.24997 0,2.025 -0.22499,2.24999 -0.22499,2.24999 -0.44999,2.47505 -0.22498,2.24997"
         id="path7793"
         style="fill:none;stroke:#000000;stroke-width:1.80000007;stroke-linecap:round;stroke-linejoin:round;stroke-miterlimit:10;stroke-opacity:1;stroke-dasharray:none" />
      <path
         d="m -733.62589,937.08631 -0.675,-1.35001 -0.45002,-1.34999 -0.44999,-1.57501 -0.45001,-1.57501 -0.22499,-1.57498 -0.225,-1.57501 -0.22499,-1.8 -0.22502,-1.8 0,-2.025 0,-2.02499 0,-2.025 0,-2.02502 0.22502,-2.24999 0.22499,-2.24999 0.44999,-2.25002 0.22502,-2.47498 0.44999,-2.47501 0.45001,-2.47501 0.67498,-2.47498 0.45002,-2.7 0.67498,-2.70001 0.675,-2.7 0.90001,-2.925 0.9,-2.92499 0.9,-2.925 0.9,-2.925 1.12499,-2.92502 0.9,-3.14999 1.35002,-3.14999 1.12499,-3.15002 1.34999,-3.14999 1.125,-3.37501 1.57501,-3.37498 1.35001,-3.37502 1.57498,-3.37498 1.35002,-3.37501 1.57498,-3.6 1.8,-3.37499 1.57501,-3.6 1.8,-3.60001 1.8,-3.6 2.025,-3.825 1.8,-3.6 2.025,-3.825 2.02499,-3.825 2.025,-3.6 2.02502,-3.825 2.24999,-3.825 2.025,-4.04999 2.25001,-3.825 2.47499,-3.82502 2.25001,-4.04999 2.24999,-3.825 2.47501,-4.04999 2.47498,-3.825 2.47501,-4.05002 2.47501,-4.04999 2.69998,-3.825 2.47501,-4.04999 2.7,-4.05002 2.70001,-4.04999 2.7,-4.04999 2.7,-3.825 2.69998,-4.05002 2.92502,-4.05003 2.69998,-4.04998 2.92502,-4.04999 2.69998,-3.825 2.92502,-4.04999 2.925,-4.04999 2.925,-3.825 3.14999,-4.04998 2.92503,-3.82499 2.92496,-4.05006 3.15002,-3.825 2.92495,-3.825 3.15003,-4.04999 2.92504,-3.825 3.14995,-3.82499 3.15002,-3.60001 3.15003,-3.825 3.14995,-3.82499 2.92502,-3.60001 3.15003,-3.6 3.14995,-3.60001 3.15002,-3.6 3.15003,-3.60002 3.14995,-3.59992 3.15002,-3.37503 3.15003,-3.6 3.14995,-3.37501 3.15002,-3.37501 3.15001,-3.37503 3.14995,-3.14995 3.15003,-3.15001 3.15002,-3.15002 3.14995,-3.14995 2.92504,-3.15003 3.15003,-2.92504 3.14995,-3.14995 2.92502,-2.92502 3.15003,-2.69998 2.92496,-2.92502 3.15002,-2.69998 2.92495,-2.70003 2.92504,-2.69998 2.92504,-2.47497 3.14995,-2.47505 2.70003,-2.47498 2.92497,-2.24999 2.92502,-2.47505 2.69998,-2.24997 2.92502,-2.025 2.69998,-2.24999 2.70003,-2.02499 2.69997,-2.025 2.70005,-1.8 2.69996,-1.8 2.69996,-1.80001 2.47505,-1.575 2.47499,-1.80001 2.70004,-1.57502 2.24999,-1.34993 2.47497,-1.35003 2.47498,-1.35002 2.25006,-1.35002 2.24997,-1.12496 2.24999,-1.12502 2.24999,-0.89997 2.24999,-0.90003 2.02498,-0.89998 2.02508,-0.90004 2.02499,-0.67497 2.025,-0.44998 2.02498,-0.67505 1.80002,-0.44997 1.8,-0.44999 1.8,-0.22499 1.8,-0.22499 1.57493,-0.22507 1.57502,0 1.57501,0 1.57501,0.22507 1.35003,0 1.57501,0.44998 1.34995,0.22499 1.12502,0.44999 1.35003,0.44997 1.12495,0.67505 1.12502,0.67498 0.89998,0.67505"
         id="path7795"
         style="fill:none;stroke:#000000;stroke-width:1.80000007;stroke-linecap:round;stroke-linejoin:round;stroke-miterlimit:10;stroke-opacity:1;stroke-dasharray:none" />
      <path
         d="m -428.97591,548.51134 1.12502,0.67497"
         id="path7797"
         style="fill:none;stroke:#000000;stroke-width:1.80000007;stroke-linecap:round;stroke-linejoin:round;stroke-miterlimit:10;stroke-opacity:1;stroke-dasharray:none" />
      <path
         d="m -734.75091,939.11131 -0.9,-0.67501 -0.9,-0.67501 -0.9,-0.9 -0.67498,-0.9 -0.9,-0.9 -0.67501,-0.9"
         id="path7799"
         style="fill:none;stroke:#000000;stroke-width:1.80000007;stroke-linecap:round;stroke-linejoin:round;stroke-miterlimit:10;stroke-opacity:1;stroke-dasharray:none" />
      <path
         d="m -743.97591,920.6613 -0.225,-2.025 0,-1.8 0,-2.02499 0,-2.025 0,-2.02502 0.225,-2.24999 0.22502,-2.24999 0.22499,-2.25002 0.44999,-2.47498 0.45001,-2.47501 0.44999,-2.47501 0.45001,-2.47498 0.67501,-2.7 0.67498,-2.70001 0.67501,-2.7 0.9,-2.925 0.67501,-2.7 0.9,-2.925 1.12499,-2.92499 0.9,-3.15002 1.125,-3.14999 1.12499,-2.925 1.125,-3.37501 1.35001,-3.14999 1.34999,-3.14999 1.35002,-3.37501 1.34998,-3.37501 1.57501,-3.37499 1.57501,-3.37501 1.57498,-3.6 1.57501,-3.59998 1.8,-3.37501 1.57501,-3.6 1.79998,-3.825 2.02502,-3.60001 1.8,-3.6 2.025,-3.825 2.02499,-3.6 2.025,-3.825 2.025,-3.825 2.25001,-3.825 2.025,-3.82499 2.24999,-4.04999 2.25001,-3.825 2.47499,-3.825 2.25001,-4.05002 2.47498,-3.825 2.47501,-4.04999 2.47499,-3.825 2.47501,-4.04999 2.47501,-4.05002 2.7,-4.04999 2.47498,-3.82499 2.70001,-4.05002 2.7,-4.04999 2.7,-4.05 2.925,-4.04999 2.7,-3.82499 2.70001,-4.04998 2.92499,-4.05007 2.925,-4.04998 2.925,-3.825 2.92499,-4.04999 2.925,-4.04999 2.92502,-3.825 2.925,-4.04999 2.925,-3.825 3.14999,-3.825 2.92499,-4.05006 3.15002,-3.82499 2.92496,-3.825 3.15003,-3.82499 3.15003,-3.825 3.14995,-3.6 2.92502,-3.825 3.15003,-3.6 3.14995,-3.60002 3.15002,-3.825 3.15003,-3.59992 3.14995,-3.37501 3.15002,-3.60002 3.15003,-3.6 3.14995,-3.37501 3.15002,-3.37502 3.15001,-3.37502 3.14995,-3.37493 3.15003,-3.15003 3.15002,-3.37501 3.14995,-3.14995 2.92504,-3.15003 3.15003,-2.92503 3.14995,-3.14995 2.92502,-2.92503 3.15003,-2.92504 3.14995,-2.92496 2.92503,-2.70004 2.92495,-2.69996 3.15003,-2.69997 2.92504,-2.70004 2.92496,-2.69996 2.92502,-2.47505 2.92497,-2.47498 2.92502,-2.24999 2.92496,-2.24998 2.70004,-2.25007 2.92496,-2.24998 2.70004,-2.24998 2.69998,-2.025 2.70003,-2.025 2.69998,-1.8 2.70004,-1.8 2.47497,-1.8 2.69996,-1.8 2.47505,-1.57501 2.47499,-1.57501 2.47498,-1.34996 2.47505,-1.57501 2.47497,-1.35002 2.24999,-1.12495 2.24997,-1.12504 2.25007,-1.12502 2.24998,-1.12495 2.24999,-0.90004 2.02499,-0.89998 2.24999,-0.90003 2.025,-0.67498 1.8,-0.67496 2.02498,-0.45006 1.80002,-0.44998 1.8,-0.44999 1.8,-0.22498 1.8,-0.225 1.80001,-0.22507 1.57501,-0.22498 1.575,0 1.57501,0.22498 1.34995,0.22507 1.35003,0.225 1.35001,0.22498 1.35003,0.44999 1.12496,0.44998 1.35001,0.45006 1.12504,0.67496 0.89996,0.67498 1.12503,0.90003 0.89996,0.89998 0.90004,0.90004 0.89997,0.89996"
         id="path7801"
         style="fill:none;stroke:#000000;stroke-width:1.80000007;stroke-linecap:round;stroke-linejoin:round;stroke-miterlimit:10;stroke-opacity:1;stroke-dasharray:none" />
      <path
         d="m -736.7759,937.5363 -0.90001,-0.67501 -0.675,-0.67498 -0.89998,-0.9"
         id="path7803"
         style="fill:none;stroke:#000000;stroke-width:1.80000007;stroke-linecap:round;stroke-linejoin:round;stroke-miterlimit:10;stroke-opacity:1;stroke-dasharray:none" />
      <path
         d="m -745.10091,915.71131 -0.22499,-2.025 0.22499,-2.02502 0,-2.24999 0.22502,-2.025 0.225,-2.25001 0.22499,-2.47498 0.44999,-2.25002 0.45001,-2.47498 0.44999,-2.47501 0.67501,-2.70001 0.45001,-2.7 0.67498,-2.7 0.9,-2.69998 0.67501,-2.7 0.9,-2.925 0.9,-2.92502 0.9,-2.925 1.125,-3.14999 1.12499,-3.14999 1.12502,-3.15002 1.125,-3.14999 1.34999,-3.14999 1.35001,-3.37501 1.34999,-3.14999 1.34999,-3.37501 1.57501,-3.6 1.575,-3.37499 1.57501,-3.37501 1.57498,-3.6 1.80001,-3.60001 1.8,-3.6 1.8,-3.59998 1.8,-3.825 2.025,-3.6 1.8,-3.825 2.025,-3.6 2.25001,-3.825 2.025,-3.825 2.02499,-3.825 2.24999,-3.82502 2.25002,-3.825 2.24999,-4.04999 2.47501,-3.825 2.24999,-4.04999 2.47501,-3.825 2.47498,-4.05002 2.47501,-4.04999 2.47501,-3.825 2.47498,-4.04999 2.70001,-4.05002 2.7,-4.04999 2.7,-3.82499 2.70001,-4.05002 2.7,-4.04999 2.7,-4.05 2.69998,-4.04999 2.92502,-3.82499 2.925,-4.04998 2.7,-4.05007 2.925,-4.04998 2.925,-3.825 2.92499,-4.04999 2.925,-3.825 3.14999,-4.04999 2.92502,-3.825 3.14999,-3.825 2.925,-4.04998 3.15003,-3.82499 2.92496,-3.825 3.15001,-3.82508 3.15003,-3.59992 2.92496,-3.825 3.15002,-3.82508 3.15003,-3.59992 3.14995,-3.60001 3.15002,-3.6 3.15003,-3.60002 3.14995,-3.6 3.15001,-3.60001 3.15003,-3.37501 3.14995,-3.6 3.15002,-3.37503 3.15003,-3.37493 3.14995,-3.15003 3.15002,-3.37501 3.15003,-3.15003 2.92496,-3.14995 3.15001,-3.15002 3.15003,-3.15003 3.14995,-2.92495 2.92503,-2.92503 3.15003,-2.92497 2.92496,-2.92502 3.15001,-2.69998 2.92497,-2.70003 3.15002,-2.69997 2.92504,-2.70005 2.92495,-2.47497 2.92504,-2.47498 2.92496,-2.47505 2.92502,-2.47497 2.69998,-2.24999 2.92502,-2.24999 2.69998,-2.24997 2.70004,-2.02508 2.92496,-2.02498 2.70004,-2.025 2.69996,-1.8 2.47497,-1.8 2.70005,-1.80002 2.47498,-1.8 2.70004,-1.57494 2.47497,-1.57501 2.47498,-1.35001 2.24998,-1.35003 2.47505,-1.34995 2.24999,-1.35002 2.24999,-1.12503 2.24999,-1.12495 2.25004,-0.90003 2.24999,-0.89998 2.025,-0.90003 2.02499,-0.89997 2.025,-0.67505 2.02499,-0.44997 2.025,-0.67498 1.8,-0.44998 1.8,-0.45005 1.80001,-0.22499 1.8,-0.225 1.57501,0 1.57502,-0.22499 1.57501,0 1.57494,0.22499 1.35001,0.225 1.35002,0.22499 1.35003,0.22498 1.34994,0.45007 1.35002,0.44997 1.12503,0.67498 1.12496,0.67504 0.90004,0.67498"
         id="path7805"
         style="fill:none;stroke:#000000;stroke-width:1.80000007;stroke-linecap:round;stroke-linejoin:round;stroke-miterlimit:10;stroke-opacity:1;stroke-dasharray:none" />
      <path
         d="m -437.52587,541.9863 1.12495,0.67497"
         id="path7807"
         style="fill:none;stroke:#000000;stroke-width:1.80000007;stroke-linecap:round;stroke-linejoin:round;stroke-miterlimit:10;stroke-opacity:1;stroke-dasharray:none" />
      <path
         d="m -736.7759,937.5363 1.12499,0.67501"
         id="path7809"
         style="fill:none;stroke:#000000;stroke-width:1.80000007;stroke-linecap:round;stroke-linejoin:round;stroke-miterlimit:10;stroke-opacity:1;stroke-dasharray:none" />
      <path
         d="m -441.57586,832.23631 -0.67505,1.12499 -0.67498,1.125 -0.67505,1.35001 -0.67496,1.125 -0.89997,1.34999 -0.67504,1.35001 -0.89998,1.125 -0.90003,1.34998 -0.89997,1.35002 -0.90003,1.12499 -1.12495,1.125 -0.90004,1.35001 -0.89998,1.125 -1.12502,1.12499 -0.89996,1.125 -1.12503,1.12499 -0.89997,0.9 -0.90004,1.125 -1.12495,0.9 -0.90004,0.9 -0.89996,0.67501 -0.90004,0.9 -0.89997,0.67501 -0.90004,0.44998 -0.67498,0.67501 -0.90003,0.44999 -0.67498,0.45001 -0.67496,0.22499 -0.67505,0.225 -0.67498,0.22502 -0.44999,0 -0.45005,0 -0.44998,0 -0.44998,-0.22502 -0.44999,-0.225 -0.22498,-0.22499 -0.22507,-0.45001 0,-0.44999 -0.225,-0.67501 0,-0.44998 0,-0.67501 0.225,-0.9 0.22507,-0.67501 0.22498,-0.9 0.22499,-0.9 0.225,-1.125 0.44998,-0.9 0.44998,-1.12499 0.67505,-1.125 0.44998,-1.12499 0.67497,-1.125 0.67505,-1.12502 0.67498,-1.34999 0.67497,-1.12499 0.90004,-1.35002 0.89996,-1.34998 0.67505,-1.125 0.89997,-1.35001 0.90003,-1.125 1.12495,-1.34999 0.90004,-1.12502 0.89998,-1.34999 0.90003,-1.12499 1.12495,-1.12502 0.90004,-1.125 1.12496,-1.12499 0.90004,-0.9 0.89996,-1.125 1.12503,-0.9 0.89996,-0.9 0.90004,-0.67501 0.89997,-0.9 0.90004,-0.67498 0.89996,-0.45001 0.67505,-0.67501 0.89997,-0.44999 0.67505,-0.22499 0.67496,-0.45002 0.67497,-0.22499 0.67505,-0.22499 0.44999,0 0.44998,0 0.44998,0 0.45005,0.22499 0.44999,0.22499 0.22499,0.225 0.225,0.45001 0,0.44999 0.22499,0.67501 0,0.45001 0,0.67498 -0.22499,0.9 -0.225,0.67501 -0.22499,0.9 -0.22499,0.9 -0.225,1.125 -0.45005,0.9 -0.44998,1.12499 -0.67498,1.125 -0.44997,1.12502"
         id="path7811"
         style="fill:none;stroke:#000000;stroke-width:1.35000002;stroke-linecap:round;stroke-linejoin:round;stroke-miterlimit:10;stroke-opacity:1;stroke-dasharray:none" />
      <path
         d="m -440.45091,818.73629 -0.44998,0 -0.67497,0 -0.67505,0.22502 -0.67498,0.225 -0.67505,0.22499 -0.67496,0.44999 -0.67497,0.45001 -0.90004,0.44999 -0.89998,0.67501 -0.90003,0.675 -0.89997,0.67501 -0.90003,0.9 -0.89997,0.9 -1.12502,0.89998 -0.89998,0.9 -1.12502,1.12502 -0.89996,0.9 -0.90004,1.125 -1.12496,1.12499 -0.90004,1.34999 -1.12495,1.12502 -0.90004,1.12499 -1.12504,1.34999 -0.89996,1.35002 -0.90004,1.12499 -0.89996,1.34999 -0.89996,1.35002 -0.67505,1.34998 -0.89996,1.125 -0.67505,1.35001 -0.67498,1.125 -0.67497,1.35001 -0.67504,1.125 -0.67498,1.12499 -0.44998,1.125 -0.45005,1.12499 -0.44999,1.12502 -0.22499,0.89998 -0.44999,0.9 -0.22499,0.9 0,0.9 -0.22498,0.67501 0,0.67501 0,0.675 0,0.44999 0.22498,0.44999"
         id="path7813"
         style="fill:none;stroke:#000000;stroke-width:1.35000002;stroke-linecap:round;stroke-linejoin:round;stroke-miterlimit:10;stroke-opacity:1;stroke-dasharray:none" />
      <path
         d="m -439.55087,819.18631 0.44998,0.22499 0.22499,0.44999 0.225,0.45001 0.22499,0.44999 0.22499,0.45001 0,0.67501 0,0.44999 0,0.675 -0.22499,0.44999 0,0.67501 -0.22499,0.67501 -0.225,0.9 -0.22499,0.67498 -0.22498,0.67501 -0.225,0.9 -0.45005,0.9 -0.22499,0.67501 -0.44999,0.9 -0.44999,0.9 -0.44997,0.9 -0.45006,1.12499 -0.67498,0.9 -0.44997,0.90001 -0.67505,0.9 -0.44998,1.12499 -0.67497,0.9 -0.67505,1.125 -0.67498,0.9 -0.67497,1.12499 -0.67505,0.9 -0.67498,0.9 -0.90004,1.125 -0.67496,0.9 -0.67497,0.9 -0.90004,1.12502 -0.67498,0.89998 -0.90003,0.9 -0.67498,0.9 -0.89996,0.9 -0.67505,0.9 -0.89996,0.67501 -0.67505,0.9 -0.67498,0.67501 -0.89996,0.67498 -0.67505,0.67501 -0.89996,0.675 -0.67505,0.67501 -0.67498,0.67498 -0.67497,0.45002 -0.67504,0.44998 -0.67498,0.45002 -0.67497,0.44998 -0.67505,0.45002 -0.67498,0.44998 -0.44997,0.225 -0.67505,0.22502 -0.67498,0.22499 -0.44998,0 -0.45005,0.225 -0.67498,0 -0.44999,0 -0.44997,-0.225 -0.45006,0 -0.44998,-0.45001"
         id="path7815"
         style="fill:none;stroke:#000000;stroke-width:1.80000007;stroke-linecap:round;stroke-linejoin:round;stroke-miterlimit:10;stroke-opacity:1;stroke-dasharray:none" />
      <path
         d="m -450.80087,838.0863 -0.22507,0.44999 -0.44997,0.67501 -0.44999,0.675 -0.44999,0.67501 -0.44997,0.67498 -0.45006,0.67501 -0.44998,0.67501 -0.67497,0.44998 -0.45007,0.67501 -0.44997,0.44999 -0.67498,0.45001 -0.44998,0.44999 -0.45005,0.22502 -0.44999,0.22499 -0.22499,0.225 -0.44999,0.22499 -0.22498,0 -0.22499,-0.22499 -0.22506,0 0,-0.225 0,-0.45001 0,-0.22499 0,-0.44999 0.22506,-0.45001 0.22499,-0.67501 0.22498,-0.44999 0.225,-0.67501 0.44998,-0.67498 0.44998,-0.675 0.45005,-0.67501 0.44999,-0.67501 0.44999,-0.67498 0.44998,-0.45001 0.67504,-0.67501 0.44998,-0.67498 0.44999,-0.45002 0.67505,-0.44998 0.44997,-0.45002 0.44999,-0.44998 0.44999,-0.225 0.22498,-0.22502 0.45005,0 0.225,-0.22499 0.22499,0.22499 0.22499,0 0.225,0.22502 0,0.225 0,0.22499 0,0.45001 -0.225,0.44999 0,0.44999 -0.22499,0.675 -0.44999,0.67501"
         id="path7817"
         style="fill:none;stroke:#000000;stroke-width:1.80000007;stroke-linecap:round;stroke-linejoin:round;stroke-miterlimit:10;stroke-opacity:1;stroke-dasharray:none" />
      <path
         d="m -471.27587,859.6863 -0.45007,-0.22499 -0.22498,-0.45002 -0.22499,-0.44998 0,-0.45002 0,-0.67498 0,-0.67501 0,-0.675 0.22499,-0.9 0,-0.67501 0.45006,-0.9 0.22499,-1.125 0.44997,-0.9 0.44999,-1.12499 0.44999,-1.125 0.45005,-1.12499 0.67497,-1.125 0.67498,-1.12502 0.67505,-1.34999 0.67497,-1.12499 0.67496,-1.35002 0.90004,-1.34998 0.89998,-1.35002 0.90003,-1.12499 0.89997,-1.34999 0.90003,-1.35002 0.89997,-1.12499 1.12502,-1.34999 0.89998,-1.12502 0.90003,-1.34999 1.12495,-1.12499 0.90004,-1.125 1.12504,-1.12502 0.89996,-0.9 1.12502,-1.125 0.89997,-0.9 1.12503,-0.9 0.89997,-0.9 0.90003,-0.67498 0.89997,-0.67501 0.90003,-0.67501 0.89997,-0.675 0.67497,-0.44999 0.67505,-0.44999 0.89996,-0.22502 0.67505,-0.22499 0.44998,-0.22499 0.67497,-0.225 0.45007,0 0.44997,0 0.44999,0.225 0.44999,0.22499"
         id="path7819"
         style="fill:none;stroke:#000000;stroke-width:1.80000007;stroke-linecap:round;stroke-linejoin:round;stroke-miterlimit:10;stroke-opacity:1;stroke-dasharray:none" />
      <path
         d="m -470.6009,860.13629 -0.67497,-0.44999"
         id="path7821"
         style="fill:none;stroke:#000000;stroke-width:1.80000007;stroke-linecap:round;stroke-linejoin:round;stroke-miterlimit:10;stroke-opacity:1;stroke-dasharray:none" />
      <path
         d="m -439.55087,819.18631 -0.67504,-0.67501"
         id="path7823"
         style="fill:none;stroke:#000000;stroke-width:1.80000007;stroke-linecap:round;stroke-linejoin:round;stroke-miterlimit:10;stroke-opacity:1;stroke-dasharray:none" />
      <path
         d="m -467.45087,844.38631 -0.67505,0 -0.89997,0 -0.67497,0 -0.45006,-0.22502 -0.67498,0 -0.44997,-0.22499 -0.45007,-0.225 -0.44997,-0.22499 -0.44999,-0.22502 -0.44997,-0.225 -0.45007,-0.22499 -0.44997,-0.22499 -0.44999,-0.45002 -0.44999,-0.44998 -0.44997,-0.225 -0.22506,-0.45001 -0.44999,-0.44999 -0.22499,-0.45001 -0.225,-0.225 -0.22499,-0.45001 -0.22498,-0.44999 -0.22499,-0.45001 -0.22508,-0.44999 -0.22498,-0.67501 -0.22499,-0.675 -0.22499,-0.67498 0,-0.67501 0,-0.44999 0,-0.67501 0,-0.45001 0,-0.44999 0,-0.22499 0,-0.45001 0,-0.44999 0.22499,-0.45002 0,-0.675 0.22499,-0.44999 0.22498,-0.44999 0,-0.45001 0.22508,-0.44999 0.44997,-0.67501 0.22499,-0.675 0.44999,-0.67501 0.22499,-0.67498 0.45006,-0.45002 0.44997,-0.675 0.44999,-0.44999 0.44999,-0.67501 0.44997,-0.44998 0.45007,-0.67501 0.44997,-0.44999 0.44999,-0.45001 0.67505,-0.67501 0.44997,-0.44999 0.44999,-0.22499 0.44997,-0.22502 0.225,-0.225 0.45005,-0.44998 0.67498,-0.22502 0.44999,-0.225 0.44997,-0.22499 0.22506,-0.22499 0.44999,0 0.44999,-0.225 0.44998,0 0.45006,-0.22502 0.44997,0 0.67498,-0.22499 0.67505,0 0.67497,0 0.89996,0 0.90004,0.22499 0.44999,0.22502 0.44997,0 0.45007,0.225 0.44997,0.22499 0.44999,0.22499 0.44997,0.225 0.45007,0.22502 0.44997,0.22499 0.44999,0.44999 0.44999,0.22502 0.44997,0.44999 0.45006,0.22499 0.22499,0.45001 0.44999,0.44999 0.22499,0.45001 0.22498,0.44999 0.22499,0.22502 0.22508,0.44999 0.44997,0.9 0.22499,0.67501 0.225,0.67498"
         id="path7825"
         style="fill:none;stroke:#000000;stroke-width:1.80000007;stroke-linecap:round;stroke-linejoin:round;stroke-miterlimit:10;stroke-opacity:1;stroke-dasharray:none" />
      <path
         d="m -706.40089,657.41133 -0.22502,0.22499 -0.22499,0.22499 -0.225,0 -0.22499,0.22499 -0.22502,0.225 -0.44999,0 -0.22499,0 -0.22502,-0.225 -0.22499,0"
         id="path7827"
         style="fill:none;stroke:#000000;stroke-width:1.80000007;stroke-linecap:round;stroke-linejoin:round;stroke-miterlimit:10;stroke-opacity:1;stroke-dasharray:none" />
      <path
         d="m -697.85089,644.36132 0,0.22499 0,0.225 0,0.22499 0,0.22499 0,0.225 -0.22502,0.22498 0,0.45005"
         id="path7829"
         style="fill:none;stroke:#000000;stroke-width:1.80000007;stroke-linecap:round;stroke-linejoin:round;stroke-miterlimit:10;stroke-opacity:1;stroke-dasharray:none" />
      <path
         d="m -698.07591,646.16133 -8.32498,11.25"
         id="path7831"
         style="fill:none;stroke:#000000;stroke-width:1.80000007;stroke-linecap:round;stroke-linejoin:round;stroke-miterlimit:10;stroke-opacity:1;stroke-dasharray:none" />
      <path
         d="m -722.37589,668.21127 -0.22502,-0.67497 0,-0.44999 0,-0.67504 0,-0.67497 0,-0.67498 0.22502,-0.90003 0.225,-0.89997 0.22499,-0.90003 0.44999,-0.89998 0.45001,-1.12502 0.44999,-0.89997 0.45001,-1.12502 0.67501,-1.12504 0.44999,-1.34995 0.675,-1.12502 0.90001,-1.35003 0.675,-1.12495 0.67498,-1.35002 0.9,-1.12495 0.90001,-1.35003 0.9,-1.12502 0.9,-1.35003 0.9,-1.34995 0.9,-1.12502 1.12499,-1.12495 0.90001,-1.35003 1.12499,-1.12502 0.9,-1.12497 0.9,-0.90003 1.125,-1.12495 0.9,-0.90004 0.9,-0.89997 1.12502,-0.90004 0.9,-0.89996 0.9,-0.67505 0.89998,-0.67498 0.675,-0.67496 0.90001,-0.45006 0.675,-0.44998 0.9,-0.44999 0.67501,-0.22498 0.67498,-0.225 0.45002,-0.22507 0.67498,0 0.45001,0"
         id="path7833"
         style="fill:none;stroke:#000000;stroke-width:1.35000002;stroke-linecap:round;stroke-linejoin:round;stroke-miterlimit:10;stroke-opacity:1;stroke-dasharray:none" />
      <path
         d="m -689.75091,631.53631 -0.44999,0 -0.45001,0 -0.67498,0.22499 -0.67501,0.225 -0.67501,0.22499 -0.675,0.44998 -0.89998,0.45005 -0.675,0.44999 -0.90001,0.67498 -0.9,0.67504 -0.9,0.67497 -0.9,0.89996 -0.9,0.90004 -1.12499,0.89997 -0.90001,0.90004 -0.9,1.12495 -1.12499,0.90004 -0.9,1.12504 -0.9,1.12495 -1.125,1.12502 -0.9,1.34995 -0.9,1.12504 -1.12502,1.35001 -0.9,1.12496 -0.89998,1.35002 -0.675,1.35002 -0.90001,1.12495 -0.9,1.35003 -0.675,1.12502 -0.67501,1.34995 -0.67498,1.12504 -0.67501,1.12502 -0.67501,1.34996 -0.44998,0.90003 -0.45002,1.12495 -0.44999,1.12504 -0.22499,0.90004 -0.45001,0.89996 -0.225,0.90004 0,0.89996 -0.22499,0.67497 0,0.67505 0,0.67498 0,0.44997 0.22499,0.45007"
         id="path7835"
         style="fill:none;stroke:#000000;stroke-width:1.35000002;stroke-linecap:round;stroke-linejoin:round;stroke-miterlimit:10;stroke-opacity:1;stroke-dasharray:none" />
      <path
         d="m -696.05089,655.16127 -0.9,1.35002 -0.9,1.12503 -0.9,1.12495 -1.125,1.12503 -0.9,1.12504 -0.9,0.89996 -0.9,1.12503 -0.9,0.89997 -0.9,0.90004 -0.9,0.89996 -0.9,0.90004 -0.90001,0.67497 -0.9,0.89996 -0.9,0.45005 -0.67501,0.67498 -0.9,0.44999 -0.67498,0.44997 -0.675,0.45006 -0.67501,0.22499 -0.67501,0.22499 -0.44999,0 -0.45001,0 -0.44999,0 -0.45001,0 -0.225,-0.22499 -0.44998,-0.44997 0,-0.22508 -0.22502,-0.44997 0,-0.44999 -0.225,-0.67498 0.225,-0.67503 0,-0.67498 0.22502,-0.67497 0.22499,-0.90004 0.22499,-0.89996 0.45002,-0.90004 0.22499,-0.89997 0.44999,-1.12503 0.67501,-1.12503 0.45001,-1.12496 0.67498,-1.12502 0.67501,-1.12497 0.67501,-1.12502 0.67498,-1.12503 0.9,-1.34995 0.67501,-1.12502 0.9,-1.12504 0.9,-1.34995 0.9,-1.12502 0.9,-1.12495 0.9,-1.12504 0.9,-1.12503 0.9,-1.12496 0.9,-0.90004 1.125,-1.12495 0.9,-0.90003 0.9,-0.89997 0.9,-0.90003 0.9,-0.67498 0.9,-0.90004 0.67501,-0.67497 0.9,-0.44999 0.89998,-0.67505 0.675,-0.44997 0.67501,-0.44999 0.67501,-0.22499 0.67498,-0.22499 0.45001,-0.225 0.67501,0 0.44999,0 0.22499,0 0.45002,0.225 0.22499,0.22499 0.22499,0.44999 0.225,0.22499 0.22502,0.44997 0,0.67505 0,0.67498 0,0.67505 -0.22502,0.67497 -0.225,0.67498 -0.22499,0.90003 -0.22499,0.89997 -0.45002,1.12502 -0.44998,0.89996 -0.45002,1.12504 -0.67498,1.12495 -0.45001,0.90004 -0.67501,1.35002 -0.67498,1.12495 -0.67501,1.12504 -0.9,1.12495 -0.67501,1.35003 -0.9,1.12502 -0.67498,1.12496"
         id="path7837"
         style="fill:none;stroke:#000000;stroke-width:1.35000002;stroke-linecap:round;stroke-linejoin:round;stroke-miterlimit:10;stroke-opacity:1;stroke-dasharray:none" />
      <path
         d="m -718.55089,671.3613 0.22499,0.22499 0.44999,0.22498 0.22502,0.225 0.44999,0 0.22499,0 0.45002,0.22507 0.67498,0 0.45001,0 0.67501,-0.22507 0.67498,-0.225 0.67501,0 0.45001,-0.44997 0.67498,-0.225 0.67501,-0.22499 0.67501,-0.44997 0.44998,-0.45006 0.67501,-0.44998 0.67501,-0.44999 0.67498,-0.44998 0.67501,-0.67504 0.675,-0.44999 0.67501,-0.67498 0.67498,-0.67504 0.9,-0.67498 0.67501,-0.67496 0.67501,-0.67505 0.67498,-0.89997 0.67501,-0.67505 0.9,-0.89996 0.67501,-0.67497 0.675,-0.90004 0.67498,-0.89996 0.67501,-0.90004 0.67501,-0.89997 0.67498,-0.90004 0.67501,-0.89996 0.675,-0.90004 0.67501,-0.89996 0.67498,-0.90004 0.67501,-0.89996 0.44999,-0.90004 0.675,-0.89998 0.45002,-0.90003 0.67498,-0.89997 0.45001,-0.90003 0.44999,-0.89997 0.45001,-0.90003 0.44999,-0.89997 0.45002,-0.67497 0.44998,-0.90004 0.22502,-0.89996 0.44999,-0.67505 0.22499,-0.67498 0.225,-0.90003 0.22502,-0.67498 0.22499,-0.67497 0,-0.67505 0.22499,-0.67498 0,-0.67496 0,-0.67505 0,-0.67498 0,-0.44998 0,-0.67504 -0.22499,-0.44999 0,-0.22499 -0.22499,-0.44999 -0.22502,-0.22498 -0.225,-0.22507 -0.22499,-0.22499 -0.22499,-0.44998 -0.225,-0.225"
         id="path7839"
         style="fill:none;stroke:#000000;stroke-width:1.80000007;stroke-linecap:round;stroke-linejoin:round;stroke-miterlimit:10;stroke-opacity:1;stroke-dasharray:none" />
      <path
         d="m -692.0009,629.28633 -0.22499,0 -0.22502,-0.22507 -0.44999,-0.22499 -0.45001,0 -0.225,-0.22498 -0.44998,0 -0.67501,0 -0.44999,0 -0.67501,0 -0.675,0.22498 -0.67501,0.22499 -0.44999,0.22507 -0.67501,0.22499 -0.675,0.44998 -0.67498,0.44999 -0.45002,0.22498 -0.67498,0.45007 -0.67501,0.67496 -0.675,0.44999 -0.67501,0.44999 -0.67498,0.67503 -0.67501,0.67498 -0.67501,0.44999 -0.9,0.67505 -0.67498,0.89996 -0.67501,0.67505 -0.675,0.67496 -0.67501,0.89998 -0.9,0.67503 -0.67498,0.89998 -0.67501,0.90003 -0.67501,0.67498 -0.67498,0.90004 -0.67501,0.89996 -0.675,0.90004 -0.67501,0.89996 -0.67498,0.89996 -0.67501,0.90004 -0.67501,0.89996 -0.67498,1.12504 -0.45001,0.90004 -0.67501,0.89996 -0.44999,0.89996 -0.675,0.90004 -0.44999,0.89996 -0.45001,0.90004 -0.44999,0.67498 -0.45002,0.90003 -0.44998,0.89998 -0.45002,0.90003 -0.22499,0.67498 -0.44999,0.90004 -0.22502,0.67496 -0.22499,0.67498 -0.22499,0.90003 -0.225,0.67498 0,0.67497 -0.22502,0.67505 0,0.67498 0,0.44997 0,0.67505 0,0.67498 0.22502,0.67505 0,0.22498 0.225,0.44999 0,0.22499 0.22499,0.22499 0.22499,0.44998 0.22502,0.22499 0.225,0.22506 0.22499,0.225"
         id="path7841"
         style="fill:none;stroke:#000000;stroke-width:1.80000007;stroke-linecap:round;stroke-linejoin:round;stroke-miterlimit:10;stroke-opacity:1;stroke-dasharray:none" />
      <path
         d="m -704.82591,651.78633 -0.67498,0.89997 -0.675,0.90004 -0.45002,0.89996 -0.44999,0.90004 -0.675,0.89996 -0.44999,0.89996 -0.22502,0.67505 -0.44999,0.89996 -0.22499,0.67505 -0.22502,0.67498 -0.225,0.44997 0,0.67505 0,0.44999 0,0.44998 0,0.44998 0.225,0.22499 0.22502,0.22506 0.22499,0 0.225,0 0.45001,0 0.44999,0 0.45001,-0.22506 0.44999,-0.22499 0.45001,-0.44998 0.67498,-0.44998 0.67501,-0.44999 0.67501,-0.45005 0.67498,-0.67497 0.67501,-0.67498 0.675,-0.67505 0.67501,-0.67497 0.67498,-0.90004 0.67501,-0.67497 0.67501,-0.89997 0.67498,-0.90003 0.675,-0.89997 0.67501,-0.90003 0.44999,-0.89997 0.67501,-0.90003 0.45001,-0.89998 0.44999,-0.67503 0.45001,-0.89998 0.225,-0.90004 0.44998,-0.67496 0.22502,-0.67497 0.225,-0.67505 0,-0.44999 0.22499,-0.67498 0,-0.44997 0,-0.22506 -0.22499,-0.44999 -0.225,-0.22499 -0.22502,-0.225 -0.22499,0 -0.44999,0 -0.22502,0 -0.44999,0.225 -0.45001,0.22499 -0.67498,0.22499 -0.45001,0.45006 -0.67501,0.44997 -0.67498,0.44999 -0.67501,0.67497 -0.67501,0.45006 -0.67498,0.89997 -0.67501,0.67496 -0.675,0.67505 -0.67501,0.89997 -0.67498,0.90003 -0.67501,0.67498 -0.67501,0.90003"
         id="path7843"
         style="fill:none;stroke:#000000;stroke-width:1.80000007;stroke-linecap:round;stroke-linejoin:round;stroke-miterlimit:10;stroke-opacity:1;stroke-dasharray:none" />
      <path
         d="m -692.0009,629.28633 3.37501,2.47497"
         id="path7845"
         style="fill:none;stroke:#000000;stroke-width:1.80000007;stroke-linecap:round;stroke-linejoin:round;stroke-miterlimit:10;stroke-opacity:1;stroke-dasharray:none" />
      <path
         d="m -721.9259,668.88632 3.37501,2.47498"
         id="path7847"
         style="fill:none;stroke:#000000;stroke-width:1.80000007;stroke-linecap:round;stroke-linejoin:round;stroke-miterlimit:10;stroke-opacity:1;stroke-dasharray:none" />
    </g>
    <path
       d="M 84.537449,575.56654 208.70627,670.00916"
       id="path9978"
       style="fill:none;stroke:#000000;stroke-width:0.41717541;stroke-linecap:butt;stroke-linejoin:miter;stroke-miterlimit:4;stroke-opacity:1;stroke-dasharray:3.33740334, 0.83435083, 0.41717542, 0.83435083;stroke-dashoffset:0" />
    <path
       d="m 155.68909,632.99333 6.90014,-2.30004"
       id="path10753"
       style="fill:none;stroke:#000000;stroke-width:0.41717541px;stroke-linecap:butt;stroke-linejoin:miter;stroke-opacity:1" />
    <path
       d="m 160.99689,628.57017 -4.77702,6.72321"
       id="path10755"
       style="fill:none;stroke:#000000;stroke-width:0.41717541px;stroke-linecap:butt;stroke-linejoin:miter;stroke-opacity:1" />
  </g>
</svg>
