<?xml version="1.0" encoding="utf-8"?>
<!DOCTYPE svg PUBLIC "-//W3C//DTD SVG 1.1//EN" "http://www.w3.org/Graphics/SVG/1.1/DTD/svg11.dtd">
<svg version="1.1" xmlns="http://www.w3.org/2000/svg" xmlns:xlink="http://www.w3.org/1999/xlink" x="0" y="0" width="210mm" height="297mm" viewBox="0 0 840 1180">
    <defs>
        <?colorScheme?>
        <path id="mapArea" d=""/>
        <path id="monthsArea" d=""/>
        <path id="dialMonthsLabelMajorPath" d=""/>
        <path id="dialMonthsLabelMinorPath" d=""/>
        <g id="dialHoursMarkerMajorSingle" class="dialHoursMarkerMajor">
            <path d="M0 0L-22.17 38.4H22.17Z" stroke="none"/>
            <text y="30" x="0">#</text>
        </g>
        <g id="dialHoursMarkerMajorDouble" class="dialHoursMarkerMajor">
            <path d="M0 0L-22.17 38.4H22.17Z" stroke="none"/>
            <g transform="rotate(180)">
                <text y="-20" x="0">#</text>
            </g>
        </g>
        <g id="dialHoursMarkerMinorSingle" class="dialHoursMarkerMinor">
            <text y="56" x="0">#</text>
        </g>
        <g id="dialHoursMarkerMinorDouble" class="dialHoursMarkerMinor">
            <g transform="rotate(180)">
                <text y="-45" x="0">#</text>
            </g>
        </g>
        <g id="dialHoursMarkerHalf" class="dialHoursMarkerHalf">
            <path d="M0 0L-4.434 7.68H4.434Z" stroke="none"/>
        </g>
        <g id="cardinalPointLabelPaths"/>
        <linearGradient id="gradient_01" x1="0%" y1="0%" x2="0%" y2="100%">
            <stop id="gradient_01c01" offset="0"/>
            <stop id="gradient_01c02" offset="1"/>
        </linearGradient>
        <rect id="rect" x="-500" y="0" width="2000" height="50" fill="url(#gradient_01)"/>
        <path id="dottedLine" d="M0 0L1180 0" class="dottedLine"/>
        <g id="dottedGroup">
            <use x="0" y="0" xlink:href="#dottedLine"/>
            <use x="0" y="10" xlink:href="#dottedLine"/>
            <use x="0" y="20" xlink:href="#dottedLine"/>
            <use x="0" y="30" xlink:href="#dottedLine"/>
            <use x="0" y="40" xlink:href="#dottedLine"/>
            <use x="0" y="50" xlink:href="#dottedLine"/>
            <use x="0" y="60" xlink:href="#dottedLine"/>
            <use x="0" y="70" xlink:href="#dottedLine"/>
            <use x="0" y="80" xlink:href="#dottedLine"/>
            <use x="0" y="90" xlink:href="#dottedLine"/>
        </g>
        <g id="dottedBlock">
            <use x="0" y="0" xlink:href="#dottedGroup"/>
            <use x="0" y="100" xlink:href="#dottedGroup"/>
            <use x="0" y="200" xlink:href="#dottedGroup"/>
            <use x="0" y="300" xlink:href="#dottedGroup"/>
            <use x="0" y="400" xlink:href="#dottedGroup"/>
        </g>
        <g id="dottedBackground">
            <use x="0" y="0" xlink:href="#dottedBlock"/>
            <use x="0" y="500" xlink:href="#dottedBlock"/>
            <use x="0" y="1000" xlink:href="#dottedBlock"/>
        </g>
        <g id="latitudeMarkerDef">
            <text direction="ltr" x="-13" y="4" text-anchor="end">${latitudeValue}</text>
            <path d="M0 0L-8 -5L-8 5Z"/>
            <path d="M190 0L198 -5L198 5Z"/>
            <line x1="0" y1="0" x2="190" y2="0"/>
        </g>
    </defs>
    <g transform="rotate(20, 420, 590)">
        <use x="0" y="-150" xlink:href="#rect"/>
        <use x="0" y="-100" xlink:href="#rect"/>
        <use x="0" y="-50" xlink:href="#rect"/>
        <use x="0" y="0" xlink:href="#rect"/>
        <use x="0" y="50" xlink:href="#rect"/>
        <use x="0" y="100" xlink:href="#rect"/>
        <use x="0" y="150" xlink:href="#rect"/>
        <use x="0" y="200" xlink:href="#rect"/>
        <use x="0" y="250" xlink:href="#rect"/>
        <use x="0" y="300" xlink:href="#rect"/>
        <use x="0" y="350" xlink:href="#rect"/>
        <use x="0" y="400" xlink:href="#rect"/>
        <use x="0" y="450" xlink:href="#rect"/>
        <use x="0" y="500" xlink:href="#rect"/>
        <use x="0" y="550" xlink:href="#rect"/>
        <use x="0" y="600" xlink:href="#rect"/>
        <use x="0" y="650" xlink:href="#rect"/>
        <use x="0" y="700" xlink:href="#rect"/>
        <use x="0" y="750" xlink:href="#rect"/>
        <use x="0" y="800" xlink:href="#rect"/>
        <use x="0" y="850" xlink:href="#rect"/>
        <use x="0" y="900" xlink:href="#rect"/>
        <use x="0" y="950" xlink:href="#rect"/>
        <use x="0" y="1000" xlink:href="#rect"/>
        <use x="0" y="1050" xlink:href="#rect"/>
        <use x="0" y="1100" xlink:href="#rect"/>
        <use x="0" y="1150" xlink:href="#rect"/>
        <use x="0" y="1200" xlink:href="#rect"/>
        <use x="0" y="1250" xlink:href="#rect"/>
        <use x="0" y="1300" xlink:href="#rect"/>
    </g>
    <use x="0" y="0" xlink:href="#dottedBackground"/>
    <g transform="translate(420, 740) scale(0.92, 0.92)">
        <g id="contentGenerated">
            <g id="frontGraphics">
                <g transform="translate(0, -941)">
                    <g id="spacer"/>
                </g>
                <g id="cover"/>
                <g id="scales"/>
                <g id="mapAreaBorder"/>
            </g>
        </g>
        <g transform="translate(0, -430)">
            <text class="copyright">Copyright (c) ${year}, Jan Tosovsky</text>
            <text y="16" class="copyright">http://drifted.in/planisphere/</text>
        </g>
        <g transform="translate(-400, -450)">
            <g id="objectSymbolsBox">
                <rect class="boxArea" x="0" y="0" width="190" height="126"/>
                <rect class="boxHeader" x="0" y="0" width="190" height="32"/>
                <text x="95" y="21" class="boxTitle">${starSizeComparisonTitle}</text>
                <g transform="translate(0.75, 32)">
                    <g id="starSizeComparison"/>
                </g>
            </g>
        </g>
        <g transform="translate(210, -450)">
            <g id="latitudeBox">
                <rect class="boxArea" x="0" y="0" width="190" height="126"/>
                <rect class="boxHeader" x="0" y="0" width="190" height="32"/>
                <text x="95" y="21" class="boxTitle">${latitude}</text>
                <g transform="translate(0.75, 32)">
                    <g id="worldmap"/>
                </g>
                <!-- y = boxHeaderY + latitudeMarkerY / 2 -->
                <g transform="translate(0, 78.25)">
                    <!-- latitudeMarkerY = (boxAreaY - boxHeaderY - 1.5) -->                    
                    <use id="latitudeMarker" x="0" y="92.5" xlink:href="#latitudeMarkerDef"/>
                </g>
            </g>
        </g>
    </g>
</svg>
