<?xml version="1.0" encoding="utf-8"?>
<!DOCTYPE svg PUBLIC "-//W3C//DTD SVG 1.1//EN" "http://www.w3.org/Graphics/SVG/1.1/DTD/svg11.dtd">
<svg version="1.1" xmlns="http://www.w3.org/2000/svg" xmlns:xlink="http://www.w3.org/1999/xlink" x="0" y="0" width="210mm" height="297mm" viewBox="0 0 840 1180">
    <defs>
        <?colorScheme?>
        <path id="dialMonthsLabelMajorPath" d=""/>
        <path id="dialMonthsLabelMinorPath" d=""/>
        <g id="coordLabelPaths"/>
        <linearGradient id="gradient_01" x1="0%" y1="0%" x2="0%" y2="100%">
            <stop id="gradient_01c01" offset="0"/>
            <stop id="gradient_01c02" offset="1"/>
        </linearGradient>
        <rect id="rect" x="-500" y="0" width="2000" height="50" fill="url(#gradient_01)"/>
        <path id="dottedLine" d="M0 0L1180 0" class="dottedLine"/>
        <g id="dottedGroup">
            <use x="0" y="0" xlink:href="#dottedLine"/>
            <use x="0" y="10" xlink:href="#dottedLine"/>
            <use x="0" y="20" xlink:href="#dottedLine"/>
            <use x="0" y="30" xlink:href="#dottedLine"/>
            <use x="0" y="40" xlink:href="#dottedLine"/>
            <use x="0" y="50" xlink:href="#dottedLine"/>
            <use x="0" y="60" xlink:href="#dottedLine"/>
            <use x="0" y="70" xlink:href="#dottedLine"/>
            <use x="0" y="80" xlink:href="#dottedLine"/>
            <use x="0" y="90" xlink:href="#dottedLine"/>
        </g>
        <g id="dottedBlock">
            <use x="0" y="0" xlink:href="#dottedGroup"/>
            <use x="0" y="100" xlink:href="#dottedGroup"/>
            <use x="0" y="200" xlink:href="#dottedGroup"/>
            <use x="0" y="300" xlink:href="#dottedGroup"/>
            <use x="0" y="400" xlink:href="#dottedGroup"/>
        </g>
        <g id="dottedBackground">
            <use x="0" y="0" xlink:href="#dottedBlock"/>
            <use x="0" y="500" xlink:href="#dottedBlock"/>
            <use x="0" y="1000" xlink:href="#dottedBlock"/>
        </g>
    </defs>
    <g transform="rotate(20, 420, 590)">
        <use x="0" y="-150" xlink:href="#rect"/>
        <use x="0" y="-100" xlink:href="#rect"/>
        <use x="0" y="-50" xlink:href="#rect"/>
        <use x="0" y="0" xlink:href="#rect"/>
        <use x="0" y="50" xlink:href="#rect"/>
        <use x="0" y="100" xlink:href="#rect"/>
        <use x="0" y="150" xlink:href="#rect"/>
        <use x="0" y="200" xlink:href="#rect"/>
        <use x="0" y="250" xlink:href="#rect"/>
        <use x="0" y="300" xlink:href="#rect"/>
        <use x="0" y="350" xlink:href="#rect"/>
        <use x="0" y="400" xlink:href="#rect"/>
        <use x="0" y="450" xlink:href="#rect"/>
        <use x="0" y="500" xlink:href="#rect"/>
        <use x="0" y="550" xlink:href="#rect"/>
        <use x="0" y="600" xlink:href="#rect"/>
        <use x="0" y="650" xlink:href="#rect"/>
        <use x="0" y="700" xlink:href="#rect"/>
        <use x="0" y="750" xlink:href="#rect"/>
        <use x="0" y="800" xlink:href="#rect"/>
        <use x="0" y="850" xlink:href="#rect"/>
        <use x="0" y="900" xlink:href="#rect"/>
        <use x="0" y="950" xlink:href="#rect"/>
        <use x="0" y="1000" xlink:href="#rect"/>
        <use x="0" y="1050" xlink:href="#rect"/>
        <use x="0" y="1100" xlink:href="#rect"/>
        <use x="0" y="1150" xlink:href="#rect"/>
        <use x="0" y="1200" xlink:href="#rect"/>
        <use x="0" y="1250" xlink:href="#rect"/>
        <use x="0" y="1300" xlink:href="#rect"/>
    </g>
    <use x="0" y="0" xlink:href="#dottedBackground"/>
    <g id="contentGenerated" transform="translate(420, 400) scale(0.76, 0.76)">
        <g id="wheel"/>
        <g id="pinMark"/>
        <g id="spacer"/>
    </g>
    <g transform="translate(170, 790)">
        <rect id="guideBackground" rx="10" ry="10" width="500" height="340"/>
    </g>
    <g transform="translate(220, 815) scale(1.4)">
        <g id="guide_S"/>
    </g>
</svg>